<mxfile host="Electron" modified="2024-02-16T05:45:26.258Z" agent="Mozilla/5.0 (Windows NT 10.0; Win64; x64) AppleWebKit/537.36 (KHTML, like Gecko) draw.io/21.2.8 Chrome/112.0.5615.165 Electron/24.2.0 Safari/537.36" etag="X9CSzvwIHRiE9fdEYNqf" version="21.2.8" type="device">
  <diagram name="Page-1" id="2XWkQP5S-hDbL94sL5Vg">
    <mxGraphModel dx="2314" dy="1196" grid="1" gridSize="10" guides="1" tooltips="1" connect="1" arrows="1" fold="1" page="1" pageScale="1" pageWidth="3300" pageHeight="4681" background="#999999" math="0" shadow="0">
      <root>
        <mxCell id="0" />
        <mxCell id="1" parent="0" />
        <mxCell id="APLwThIm-aDqV8bCMrbt-1" value="ColorDialog" style="rounded=0;whiteSpace=wrap;html=1;fontSize=25;fillColor=#dae8fc;strokeColor=#6c8ebf;" parent="1" vertex="1">
          <mxGeometry x="1298" y="140" width="650" height="60" as="geometry" />
        </mxCell>
        <mxCell id="kHTUcJ5r45ovBo7huPNC-1" value="" style="shape=image;verticalLabelPosition=bottom;labelBackgroundColor=default;verticalAlign=top;aspect=fixed;imageAspect=0;image=data:image/png,iVBORw0KGgoAAAANSUhEUgAAAosAAAIKCAYAAABLBgVqAAAAAXNSR0IArs4c6QAAAARnQU1BAACxjwv8YQUAAAAJcEhZcwAADsMAAA7DAcdvqGQAAKbgSURBVHhe7b0JgK5HVeZfffcludl3QpablbCFsIkgRIGRRQHR0VFEkVVUYBD/MzCgKAoOoGgAAVHWgKIzgogyajRRMKAsYZMlIWQhZL/Zc/flX+d851Sfqreq3nq/77t9u/t7flBfnfPUc0693XTfKrpv95075/4P2OeIffvcKBixz+cR0bpEfkpcS5wx35oJ3gnL6/23PzgA76EZ+R8FH3vgQDEn85LggDzsknoPLTgTvXfGLl4+/5vwWzL/wozS+G0cpSNtdFlMLoLde6IKMvspsRRoc2UZs3SCHQ8QC/uGLr33z6ywhP6XwQfR4iP+Mx5kwTupxgF574y96dL633LxvZmjxvw6/8LMFS6Mc/c75/7mj/7koph+NXH0XyHNFwsTPNGYpYvvfVBj4d8/k7C03rcHAryHwCwRH2Sgy9jvoYUvXFIkd6iBLL73UfRVw/hFwlFMUGgui/FFMf1q4nxqL5BEnEVUlvqYoHR87DtgAAfkWQ8IY76lM/IOmp2PAwBAC/PH7QIy9qYH5GkXnAPz7hmveP9tOb/IkVwM7QWSiNZGl0VzUYwug7wkeXyZ7OY5eg1lxiydYMcJmJW3c1ZYQu/dJfaBgI/b/cP8H+/LnAPyhs7Me3fBGfs9O9H/JAv/v+difDt5NfnqIaky6UvwzZ19v3Pm//xOLor2Arlq9Wq3ceMGt2b1Grdm7Rq3cuXK/fonv30SkGFJvXsW/mHx0QMAONCMjtuF5sDsOhZL6FEPBHJ12z/41nv27HE7duxwO3fuclu3bnW7d+3y+mhPvTzq6/xlsXJRPPjgg90hhx7ittxxj9u2fZfb7hvv2rVHDGB5MvogAWDxgY9NsFygg7bv4xn/17fMYn/f6PPp/8b743nH77l61Sq3bu0qt37tGnfk4ZvcHXfc6e6+6y7/uKPnjS6MfFksXBTp7y0eeeSRXlnpbrjldrcTF8RlRu0DWNcAGBf7MdTyBxo+5gDoMv5lYDZYSu+f/fGs0+m5ZvUqd9xRh7lVK527+eZbRPV/KvMfy3NuRf6iSPM+t+ngg3200l1z/a24KC477MGcHtI4tMG0oY+p0sdVbQ0AAMD+Zueu3f6ud4vb7a969N3k0Q85z98JV9DE0KUxXBRHX56kbz3fcMsdvAyWO3pg49AG+xP7cYaPNwDAJPClZcaZ7p+h9F3kQw85hO+A9k64YvSu9gnPfGdkNh60kf+OIt02AQAAALC/0ZMY1KH301J7X+3P553ehZHufLfefpfbsHED53onHH1lkRO6PYrqZ/qpZ/phFgAAGA6+YgjAMPQyQbMdIGYpvk8W4pmn92futh07+Q6oN0W6G87/nUV9WySnX49DP/UMljq5DyAc5AAAAMD+ZyEuitNl+47dbu3atXI3HD3/3Jlnnc3fkB6lHPJ88kknu//89vdYLbHp4A1uNf3ozEB27d7j7rp7q2Rg/4FLIZg29DHV94cfPu4AGA/63Mp9/vR9zs0SS+19sZDPO729zjntRHf1NVf7aI5/ItpfFs8y330eBTSffPJJ7uvfvp7zEm950+vd5tM2S5ZH/1Hq7914q15Q3b13bXEv/7VXuRUrhl80QSs4sMG00Y+p0h9I+JgDYP8yvcvA0mWpvQ8W8nmnt9f9TruPu/rqa+yvzmHd7zEKws2xgUMPOdidc9bp1XG/M0/j8YTHPtI98XGjcdSRRwzaBwwFhzaYNvZjimLNNbbrAID9Az7PJuV1v/FKd+0VX3bf+87XsoPWyLPYuPSf/9Y96hEPk6wLrf3bP/2tZNNCv9usP+AyJitXrnDXXHuz+8MP/Zu74M8+7d76kU+5t/2ff3Vv/+gl7qrvXOe23Xu3u+WmG3lsvedu98G//wqPVp778z8T/Y/42699layUee8fv5XHUNK9aNg+j3jYeayRrwZ59h/2YK4NAKZB38cUPtYAAEuLn3vWT7knPPmZ7uwHf192/MDjf4Q906P2Z2g7r3jla93b/uB/Zy+MpNHar73qtaJMn4kui/TvFs7NrXRX3XmPu/ruu901W+9y391xp7tu1x1u1669/kbqh/xHWbmm7Zd708Xwt379le6EU+8fxoMecI6s7h+uuvqaaL+HnXeu+7S/zRP//rkvsPan7/sQ59Oj5YNoOh9sALSDjzcAwGJksj+bVq5c6W646SZ31113Z8fV11zLnukz2Tl+6b9/zv3yy/5H58KoF0VaI8/+YqLL4p69e3k+6oi1bm7Nbnfn7rvcLdu3uJu2jf6pmLnkO83rDtvuNhzZ9oMtz3n2T/PlzPIjz6x/VW/a3P+8R/Mvp+z7aiIAAACwMOilY7JL09JmKb/94z93emFcqIsiMdFlUe+C37jpOnfVHTe4O3bf7ra5u93OuXtY3yfvE/oKJLHx0HvchoNGazXoq4pfvOzLkuX52hc+Hb5drF/9y1Hy/c3//RB/m5n02ret6auNp5x8EsfkVbQnDeqVg94O67OXTt37e9/5aojzLNVPCHBgwMcLALMDfb7rmEWW6ts//vPaC+NCXRSJCb8NPWKbvxyuXr/LrV63y61au9Ot9oPxt0m9KBJnHXWiO+3QUyWrc+uW2yTqQpe+z33hsvDt4ttvvyN7Yevz0beZSX/OC35FlC70HCccf5xk82hPGnSZpL/TOP8emfMXw2eFr47S+LGf/Dn+tjr56NL4xMef7/UH8JiH6tMBwFAm/bjBxx0AoB/6YkfLAEuf5J/7k68V0o+/SNgCXxL9WL2Whrks+jPHtjntsM08WjjyiMMl6kKXM3vB++3f/f3w1T9Ln+9jf/N3EpWh5/je9TdINs/8Vwa/5g477FBR53n0ox7h/uGii300Onjp7zzSV0t/5Cn/xa89UtZGPOcFL5EIgEmhzzga9HHXOgAAYDj6BY++AaaH/daz/Zb01NGjhF78nXCirywqo4vi6JK4huY1o8vi6Nfj8G4879y1y23btl3yMn/zt3/vHnLugyRr444775SoTqtPoeeg57HQRZEukfpVQ/qKZSv0bW3ie9ffyDMABx5cHgFY2ug5O4vYe8byJv07iunfYdyff35Pdln0z7Vjxzb3iCM3u4cedrp7yKYz3IM3nu0euP4c1keW0cPTvXHv3r3hh2Jq6Ffh6O8bWvRbyHThsn/P8NX/8+Xuim9/R7J5Wn0l6KuG9BVAep4U/TY5fbs595XFT1/67/yt5hFz/O1nunj+6fs+zBfFp//Ik2SNLp8XSAQAAACAOnpBHH5J3LNnjzv8sMMk63LssUezZ7FR+mGW7oVx/zDRZZHufWefeaJ74fmPdy987BPd8x/zJPe8x/yoe+73P82ddeZ93IYNG93RRx/lDj/icLd6zWq+LK5Y0XbzpZ98pr9vqN/qpaHfNn70Dz6F/76h6kTu7x22+hT6FrV6afz6b70h459z73z3+/giSJ7nPPu/Zb+ySL9i570f+DPvGf2djb/6yPv57y0Sr37t6/1F9tqwBgAAAIBpQHcMHV3ef+Gfu3+96G/4/M6N//jUP7JnMUH/Et6bXv8bnYuiohfGN79h//2exbkzzjzLX831t3TL7F9OPvlk9/Ur6//c38t+5UXu3Ac/ULIuK1as4EG3dPsvtnzly19zb3rLBW7FylWiLAXaLrnj8IiHPcT96Tv/0N3/vMeIAsCk7L+PVwDAYoXO2dzn/vz5u3wovU327V/Mb/ewZ6MLY9u/fDedt/l+m+mf+7ua3538O7UnuSzyL93eS794exj0P+Wcv0TOzU3lr0xOCD1N31uQ++SbHp/+50+422+/c8F/jyRY7OQ+7lo+2/bvxysAYKkx9JReCpTepvTPv8X6tu+v55pO3/SyONmvzvGXPfrq4MqBg2oWx0VRqR2u0z946SuJ+i1o/TY0LoogpvRxR3o6AAAAgP3HRF9ZXBrQYVq7aeOwBYuRcT4u6eMcH88AgJTaGbiUWcpv1/569un0nepXFhc/ODjBLIGPdwAAANNnmV8WldIhisMVAAAAWJrgDF8olvFlMf0gotxq+CADAACwnKFvSabfltSzMD0Tlyo4yxeC0WWRP5bm/77idL7jvVAM/UBZLp8gYOmhH3vpSMlpAAAwLvjzZnaY3v+ecjXkeYl/ZbH0TsEHP1hs1D4maU3X8bELAJgW9s+WGkv9zx38ubm/WcKXRfvBgQ8UsJhp/fjExzEA4ECx1P/8oedfKm/D/v7+7fTfD0v0sph7R+gHylL5YAFLH/sxV/q4w8cjAGCpgD+v9i90SdzfF8X9w+j3LPLfU4z/zuIpJ5/s/vEf/4FNAAAAAABgNnjCE57orrr66tH/fZhb9r9nEQAAAAAATAIuiwAAAAAAoAguiwAAAAAAoAguiwAAAAAAoAguiwAAAAAAoAguiwAAAAAAoAguiwAAAAAAoIi/LI5+r6K+jH5dJP/CRY4AAAAAAMDswLdB+b3blOEriwAAAAAAoAguiwAAAAAAoAguiwAAAAAAoAguiwAAAAAAoAguiwAAAAAAoAguiwAAAAAAoAguiwAAAAAAoAguiwAAAAAAoAguiwAAAAAAoAguiwAAAAAAoMiK0b/lYv/JP/4XXjQEAAAAAAAzht4D6U6IrywCAAAAAIAiuCwCAAAAAIAiuCwCAAAAAIAiuCwCAAAAAIAiuCwCAAAAAIAiuCwCAAAAAIAiuCwCAAAAAIAiuCwCAAAAAIAiuCwCAAAAAIAiuCwCAAAAAIAiK+ifc6F/yoVe+J92GSX8XwAAAAAAMGOMLoRyJ8RXFgEAAAAAQAVcFgEAAAAAQBFcFgEAAAAAQBFcFgEAAAAAQBFcFgEAAAAAQBFcFgEAAAAAQBFcFgEAAAAAQBFcFgEAAAAAQBFcFgEAAAAAQJG50884c5+Hf0v36Bd207zPnXLyKe6ii/6RTQAsFj7wgQ+49773ve7GG28UBQAAlibHHnuse85znuOe/exniwLA4uDxj3+Cu+rqq9yc/4+b86+4LIKlxPnnn++uvfZat3v3blEAAGBpsmrVKnf88ce7j33sY+6II44QFYADT3pZXOFvh7I0YnRh5BCARQd9RREXRQDAcoD+LLv11lvdLbfcIgoAiwj6OqKE+DuLAAAAwAHk3nvvlQiAxQkuiwAAAAAAoAguiwAAAAAAoAguiwAAAMCEzM3N8Q+s0AzAcgOXRQAAAGAMVqxYwZfDgw8+2D3oQQ9yP/RDP+Qe8pCHuI0bN4oDgOUBLosAAADAQOhCuHnzZnfkkUe6c845x51++unu0EMPdaeddpq73/3u51auXClOAJY+uCwC0GGOv1qwOL6ZtJieZX8xC28jWE4ccsgh7sEPfrA799xz+SuJJ554In+VUaHfnYhvR4PlBC6LYCZZceJj3c+98IXuRS96kR8vdM/72ae7HzjzcLfKr218zOvdpVd8033mgqe4w0f2A8Ziepb9xSy8jWB5Qf/yynHHHccXQvpqor0oElu2bHH8j10AsEzAZRHMJHv3nOSe/PJXuVe+8pV+vMq95rf/0H3wHz7r/v43H+MOdnNuxep1bsPaA/9tpH36LGuW77e0wtu4CN7fALSwbds2t3fvXsli6Bdsf+Mb33B79uwRBYClDy6LYKbZd+173E8++Dz3xF/+iLtq91p32k883z3hMFk0rNp4jDvplBPdERvMp8yKNW7TMSe5U086xh282nzLaeU6d+hxJ7tTTjzSbaQvVQrZHglzaw5xx550irvv0Qc523Kfj2nt+Pue4A5fF397a8W6w93xJ5/iTjxyo0uvW8W1cZ+x9DYnlN6O2rNasr5V69zGgw5yG9etcivWHuqO2LQG37oGC85hhx3Gf1dxx44d7p577hF1xN133+2++c1vuttvv10UAJYHK0ZfKZd/F5pf8aVzMFvs2Xqr+9bF/899gf5895ecQ9aN9BGHuIf/6v91n//qf7h/veTT7gtf+bR7x0+c7Faf+gvuI1/+hvvKf/yru/hf/8N95bKPul89b6Nbd84L3If+/WvuS5/9F3fJpz/vPnXBU93hhR7mjubZ6B7w/Pe5z/znl92//+sl7lOf+6x7948fLWv+s/Lwp7q3f+aL7jOfutR94d8/5H5uM1Uf4h7xq3/hPv+fl7nP/Msl7tNf+Kq77K9f7R53JF2hymvjPuNc4W2OKb0dtWe1lH0bHvkb7p/+82vuU+97q7vw0i+6f337j7njpAqAhYC+5Ux/T5F+uOXTn/60++d//ufoX18hnTz4+4pgORDuhf6iiK8sgplm777D3P2f/Cz339/wKveko5zbfc1/uMu2yKLn4B98jXvrSx7q9l7yGveUx/w3985vHeGe/L9e5Z56xHb3nx/8Vfdfn/iD7odf8H737fXnuuf80tPdk37hBe7RR93mPv6rT3Y/9F9+yr3hktuKPZ5ypGziOejR/8u983+d747Z9mX3wd98qXvpqz/kvrZj/tPzsPsd67715v/PXXDpFrfi0Ee6n37a6e7IJ/6We9tLHuEOufHv3Zte9jL3hr+51q1/8PPd7//Wk92pxbUfcz885jOuWJF7m3/Y+XdboPR2HFZ5Vvv3FA+p+OgLvvRjMEc8/NHu6K9+zP39N+Kv6gCwP6EfanngAx/o1q5d6z7zmc+4O++8k/+u4q5du/hbzvRtadJuuukmfAsaLDtwWQQzzcqTnuFe+we/4172o6e6fVf8tXvVi37PXbZTFt1qd8b5j3LHunvd3Zue4H7tdS90D1qzzblDT3dn7v20+9TWx7qXvuW97gNv+kl36krn1h97pNtx/a1ulzvG/ejvvNf93i+e62789FfccYUeZx+vX7db6855wmPdfeZ2uC/84a+417znY+5jH3yDe/PHb5R15+669D3ugj/7v+79f3mZu9utdJsOP9rd7zEPd0e7be7z73qte9tHP+re+Tvvdp/zrQ8/99HuB88vrZ3nNt40zjM6t+faSzJv8/Hu0PCnSOntuMOdWXzW73Onr5Fy//4+veI7Y+3Itf2Lb3HPfc7L3ctf/wl3/UgCYL9BXyWkiyL9epz169e7yy67zN12222sPfrRj+YfZPnqV7/Kf0/xy1/+Mv9wCwDLDVwWwUyz79r3u5995MPdwx50P/fAx7/EfeSK7bJCzLmVK+nbSTvdPVtu4r+4/r0vX+T+8v/8u1v9cx9wf/Jrj3OrPv0292sveL3757u8bd8ed8UFP+N+4tUXun+/+SD3gKf/T/f+j7zS3X9trsel7saVekta4Vatpk/Ffb6F/pWQmH1797K+b88eWZ9z+gOY4YsYcytGf4ePDPJdsO7aHnfl28d5xnXuvP/vQ5m32T5t6e2oPes+N/9jAj0+abhjy63ubrstAPsR+ldZTjnlFL4cfv3rX3c333yzO+KII9wjHvEIXv/KV77ivvWtb7mvfe1r/FVFAJYj8kczALPKHrfttpvczXds91HKTnfV57/u7nSHufsevcX9y0c+6D780U+5qy7/jLtq3eFu1b5t7nvfvNqtfOST3MMP8fa59e4RL3iOO+WKD7lXv+AV7s+/s9utPPgwt/UruR4Xub+5bOtoG7fNffPSL7kt/kL20Je+xb322U93z/j5V7lXPOVYWc+xw13+6S+4W91697AXvtr94tOe4V78mue7h63f52767EXuon8prX3OHfVz4zzjRnef+x6ReZvlVsqU3o5D3LeKz3qJ+1b4Su5Od0XF983gA2DhoG81r1u3jn8Cevv27e6YY47hf62Fvu38pS99yd144/x3AABYruCyCGYY+mpV/ktU9HWx3Xv2uls+/uvuf/3llW7VuS9yb/s/H3cf/fDvu+c+2Ln/+OjF7vo9J7hnvuXP3ZsfvdV9+3bfa88et/rMn3a/95FPuov+3zvcT9/3dvept7/d/dWf53pskp1GbPnbV7uX/vGX3N2HPMw953V/6P7gN3/anbN+9DU3fpbd81fZff5au2fvPnfb//sN97J3Xea23ucp7n9e8Afufzz5BHfnZy9wL/mtf3JXF9f+1e06a5xn3OL+rfA2W0pvx5bKs/IXKOX9fXvFd7fxAbBQrFmzhn9wRb8VrRdF+pYzvpIIZoW5004/w5+W/o9gPjNp5pS/7H7RRf/IJgAWC2effbbbulW/2jUBK9e4DetWu7m9O922bbvMt0I9q9a5g9atcvt2bnX37qSVObd60zHuhCM3uF133uBu3LKNvwpJv2bm2EO2u5tvutetWLfWrdyzw23dudIdfNTR7vC1u9wdN9/s7tiunfM9UlZtPNodf/R6t+v2G91Nd+xwe8OzbPPP4itWrff5SrfXP9tWfjb/pmw4wh13zCa3z/e94bbt0duSXVux1m0a8xmzb/P23fRHRkTn7RA9+zyd93efT94XAOxn6KuKD3/4w93RRx/NvxZn586d/AMt3/nOd6b2i7c3bNjgLrzwQnfeeeeJAsCB5/GPf4L7zlVX8TeP6AcLcVkES4qpXRYBAKAH+vedH/WoR7m77rrLffvb3+afcqavKtKFcVr/Qgsui2Axkl4W8W1oAAAAIANdDunX5NBPO9PvU6S/s0hfXZzWRRGApQIuiwAAAECB3bt3F/9pPwBmBVwWAQAAAABAEVwWAQAAAABAkdFlUf76Bf81DD/o11PQfwAAAAAAwGwxugPyhZAjfGURAAAAAAAUwWURAAAAAAAUwWURAAAAAAAUwWURAAAAAAAUwWURAAAAAAAUwWURAAAAAAAUwWURAAAAAAAUwWURAAAAAAAUmTvt9DP20W/j5l+/SL+Vm+N97pRTTnH/dNFFIxcAi4Szzz7bbd26VbJ+vnvttfz/iOb8oNmOVGvx5LSF9OS0hfTktIX05LT95Zmb88oKH+noy3PatDw5bSE9OW0hPTltIT05reI56eST/UdQGxs2bHAXXnihO++880QB4MDzQ49/vLvqqqv8n4v+Y9p/XPuPbgBAK/R/qvrYn55UW2hPR6PD0QzKc1qaj+ux2kJ49G3mkWoL6VEtzcf0RFCe01IOpCfHQnoAmHH4skh/gIz+rT+NOQRgpmn5NNhfnlxN0Ohw84MP/WSk2jgeyps9htzbYLU0JxbKo/lQj32bA6W8xWNZaI9B//ezb3M2b/HYPKf1eBifd0i1nCdlIT0ALHP4m80S4yuLAEyRcPhVYA8dRjLo4LR5bkQe7ZGQarm8xWNprbHaODVE1SPvg/R9lWp9eYtH8zD89jz68hZPmmc0fY6IXD7UM04NsT9qCNGi94PNcyPxZPumtHgAAFVwWQQzCR80A2muocNJBh1u2bxCuk9fTixEDeUdzbxt0dtncquleYuHc9lPSZ+lNW/xdNBnUUp5i0dJc0I0fQ59PxRz1dK8wRNBeU6z9OXEQtUYSm+fzZvo2SfLODUALFFwWQRgTPggogNDBh/CAw+Q9DDry3MM7UF50NJnH5CzJkQ9hZbcamlO9Nboc8joy1s8modB+5i9inmLR/IAxTYncnmtJs2JnrzzXKo15ozPh+7byXNMo4chfXZ+/oE9AJh1cFkEwBMOQCHNA3TI2FGhr2dxjwpNPc3z0SFZy0ONYRq51dKc6HsuPtxbcqFvT81bPEqIdV+lLyd6PPr8umdvrlqSR1Butb6cGDNPn6OWD96jhQl72ufjZ2xhnOcEYJmAyyIADfDBbA6L5gNmAGnPYi7PEp4pzYWWflZLc6I3N/tHz1DJWRPSPSfOtb+MNM9ptZxj6mt6N+eJxviYhzJhXtyzJ49oya2W5kQlLz2DxsyAflPD9NRnitgfewKwRMFlEYAadGA0HBrh0BOmkuvefvBBpkPXDVPPkz2LuUD1tsdEue0voy9XzWL7E9U9PZzbfqmmDM0Jn4d+NFpy0RgfV/cYmNv+6X42j9hPebSnyafVP5DmGcLeAIAIXBYByEEHS8PhMjV0PzuE9PCaSm724UtBmhsWZD+bc9U8LbnV+NJh+w3ItRf3E41gTXzB05gHKB6SEz4P/Wg05BET5n37Tdq/ltt9wn4LxELvB8BiB5dFAFLSAywhPUTGymkPGekBn/qHENVqbzNCLjQ9q6GTm95R/zQnrwylOTe9bP9iLhT7CTbnONNLdR0MzRoTPXnUqyHv69eXR70LecQEeak/zYG0fghJbbrXkGdl+vKE6O0AYIbBZREAiz880gNiagcGHUw6hL69mnPbW8a0e/Mlw8ScC+S19bncEnLTT+M0z/Vqyk2vqJ/JozWps720RlE/+2xcyG1t2quUR/00TnLG1hI2p7iS5541xH5EtcQYue1nxzR6K53ek5LZa2q9AVjC4LIIZp5wEKQHxRikhwodwtxXeg85dDq9ZNZ+td7FWqGT215+2Jy8Y/XO9Upzb0t7p7ml2ivNyT8qY2zeWUtrddCaXVco1tzGhMltbdrL5hE2pziT13ppzJDfUsspljztpXlEX24xa2lvZkivlEzviCG9+phmLwCWELgsAkCMeQiEw85CvXQYUm9fHvB9+AA0PZtrPR2v7eVHerhaf98+thfFUU7rIxtT6xW8WiujkwvZWqGlV2dNSHupT1G/+jqxydPabC5k+5q8Vsuka36UelEcUcuTtaiP5BGV2lJue9Gcpa9XQujJWUJPbYniswEwA/jL4uhTYP513yjGZwaYFQYcHtVPC+pjeg35FEq9fAgn/ZSOV2bF5lEfP9LDPfLKUKK+WmuG7RV5PcVc6myvqK8nfYZintR2+npLqTZay9Xq8Ms8TM74mEcaE5LnakPuZ0a8gVzuSWtDLDlj64hKHvUxecDWUpzmhlyvQOLtzT3ZPkTGG6h4tV+RWt+Eah8AlhPhg90H+/bhK4tg9hjyB36z1x84NW+6lvXSoUV9ksNrUF/pEYah9gzRmq9L+6TeYq2Hc62T0donym2djCgXH1Hso16p07zWx+bqC5gaHmksOePjtDZgvGmt5gGK09yS1Nk+OW+A4iQPfWhIHkhrLUme9olIc0vax+fap0OtT4r0aWJgXwBmAVwWwWwzwR/2fPhQfabHkIOJD9PCc6R9On21VvsYrLfYR+vMqO3ZWbN1MjinNX4dQXG2j6nt9BGqfdQro9NHfIStDbH1JrHW80hyrWNsTJCPhg9DrY0Tb1qrqDfXp1bHSG73tH0ibJ5ZC3U0JGcG9In2Z8VQ62Po7J/S0CfsX9ijheL+ACxjcFkEwFA7CDprYx444bAqHGYlwprU2kM/rbN5tKZ12kNkpdrH1IU+QrWOXtI6jXVdSGNbG9VpLtg+NiaCV0YU0/rIxtiYUa+S1HFvG2e8ndij3lyf1NuJjTftUawjTB7VSR6o1DG2VuJAYx+7P5N6LZm1UFurqxA9MzFwfwBmDVwWwewy7iFAdUlt5/AxRGtJ7eA6qR2rzo/WOorD5YPqaBZ4bRQyvXVSO1YdxbKudOooyNVpLtg+uTqt1TgM8trY1DE29qTeYh2Rxsab9uirI8atI5rrUmydjEBPHTFuHTFuHdGpHcC4dQAsVXBZBKBA9kAwB1yJYp0frXUhztSlPTprUjNuXXpRqPZQ75TqyFeqI1+2jmJaH9mYceqKPdRvYvVybxurj0jj1Gvj1KtQLHmuLiKtE6ZVV/IxyVrYS/LAkDpLWmcxdR166ohsHQAgApdFMJuMc1AUDp5aDz6YG+qiHlojddX+MpM33avY38O5+G1d1ifYmlAnpL4oT2pqdUrwyUhrsnXi07oQC7YuxMZr46iH+k2sXsbGHq0PNRIzxpeto1nj1KukNTQoljxAcZoLUQ0JBR8jufbP1hCFHurnGiKts9g6H4caotDfwvvU+heI9iEaenRqAFjG4LIIQAPjHEDpgdN7uJDfj5rPrvEz6UiIfDIz1N/UFH0ezsVra4hSXfRMftj3W1oTcvUVatI669M6jtkxIoqNL/TXmNZHtijWNUb9Jlav7hti9RFJHLw2lrUAxSa3Po2ZxFeskTxQqqFh6iJfiqzZmoCty8Tav/hMKX5Na6okPYr+yl7RM9Vo9QGwjMBlEYApwocUHSZ+1A44u8aHVOEAinwya39L1qeo34+qj1Cf1njSmihXn9YIHZ/MUW+Jsz4Px9YncVgTotj6NBbIp16OjSetYZ+J1W9j9hM29nRqJGeMT+PUx96Mj0l81d4mT2sCiU9j25v7Ww+R1ITeLBgSnyXyV3wK+xt8Sujf4wMA9IPLIgBCOLhSksOm6CMqB10H8lZ6d2qMv+ojxGsP12KN+sRb8nGsPq0RmnpTLDKRxpFPY1lT2EeBeDo1QvDJPG5vzdVvY+2rdVrDGB+T8VGc8xHBZ+Kcj0l8NAcKNVFvEgo+jcft3SFTk/UWehNDehNZr5LpnSXxATBr4LIIZo8hf/D3eO3hwgd6A1wj3upBpniv7V070NiX6d2pUR/ViERkY/KoXyjWqE9qqr2NT3uT3uujmFdH2Bre0/o0pjUZBMfGE9WMLCMkVz8PibWv1inBo3HBR3Hkkzj1aN7rU8hjfGF/ohDb3kylJvRlwZCp6fRNMTVVn8X0jvasUHwfZGh6BmGIF4ClzIrRR7t8yOMjHwBm8KdCcgAV68lXOKxsDcfirT1LyZeN1UezUKwRb9qXKPpoFtK+nFufeFMfIx71hXoh9XEvjQVbw3HqE2/aN+ypw2gBiXWNZ4mDz8ae1EczYzxaEzw1n8f2Yh/pGR+R7h+wMdHiM3G0P1GpCT6rZ8j6CjXBmyOpKfpK9DwnALMEvrIIQAk5LHoPmZ5DJdR7n+1VPeQKPaN646s+Y8HXicVnLwlp3xZfiNWjfi+1+pQoNj6OVZehRL00Jl0GwbHxhFjWAlYXn61lTBx8Jg4YH822V8enqIeGxEzqb/UJYW9KrIdo8WXi4CthfT29iGq/pCb4rJ6h+nyE1Pf6AJgxcFkEIEfh0LGHCMc9h1Og5RAjjx+dPYQQi6+E9dlDudSLPeLLeogWn/VQLDIRxcbHsehE6gu9aBZqHvWRR30cJz6OZU3h2Hh4WF2RWPuqx/bVPkTai32KiVs8FAefxIHU56fgY9GT8Xc8KSVfphdR9CRwv1FY7EVx8FV6EaFXD51ehb6t/QCYBXBZBGBczCFjD5ZOLL7q4dNzEDLkyfSKYvX4UfTQS8bToaVXi4de1EOzkHq0F182xMc6RyOi/cRDVD3is704Np4Qy1rA6uKztYyJg8/EARNXPZKzR31GZ0xc7aVM4kkxvrQ+UOqViUOvHqoe26tnP6JlPwDAPLgsgtnCHh4lpukp+MJh5dft4WYPsWl5ArSuIwPXyHp1v6Ee8U3q0f1IVx/HAzzq41jWlNTDg3RdUyRWPfKoz8RRL6MXPSSoh1APjR4Psd89Bl1nT0qmF2N7TcuTkH2ehIX0ALDUwWURgP1B5SALTMND6z0eOmDVYw+2KO7z+LUF8cja/vKoj2Pj4Vh1jgTxEOrTWq2JPDTUQ4J6iP3oYRbAE2jxZGDPKCzSt05MywMAaAOXRbDssYfGVGJ/IFY95vBUBntovcUjZD1+veqRPZo8rIyIYlmfyEO6ejwdj9ZO4lHdeGhdPRyb9WiYNUZnT1iXOCCx6uqxteN6mMSjtblnYAZ6Ul3pe06i9pxK7RkI3qPBk9OZRk/fc04UA7CMwGURAEvfH/bTOAwm3cOv24M0HHiecDiSh5URUSzrHPPriBBTbatH6HikvuiRdfaoJoOgdfVEugztXfSorh7VOZpfVw/HpPPriBCbNe6ns+jah1BdPaqrx9Zyf9EZiWv9wzoN1QgTa+/QXxng0f68TlQ8gSSu9Sei/gUmXScWYg8Alju4LAIwTezBKNjDxh6ukU4vtJYcoJ3aTP9Aw/pU9i95SFePp+ORdX0G0tSj66GHEPWQdfaIRnRqaaguRLVmXT2kqacT23VC1oiwLnFA12kYj+pMTy2RraVZYl4Xj60L6zR0nah4AknM6xIHTBz1zxDqC/B6oXfr/gCA/QsuiwC0kjmU7CFoD63s4Vg71HoOvFLvEPv1rO7h2kp/u17sbeqzvckjGqExraun2puGp9hb1olcLWmqh1jWtTbySF21t4TsE7gfzRIzNEvM6+KxusZa19ybkLhW29c7rNNIdKVWS3RqE2q97f653kStNxGeLUNYa+md2afWm+hbB2C5g8siAErPYaVkD46+2mTd9rAHWaTTC63Vest6p44g3dQO6c11Mgb31rqe9Wxv1WkW1EOz7W11RuvUIzIR6TSTJoPgfmaddROHddF5eMK6xIFEp5lRD2nqIc3oiu1tda71U6hVNKZ19eTWPbrOJJ5sb4Oup3VKrTcR1jK09A7Y2FPrS2TXkx4AgDy4LALQQOngZCpr9uAbfFhl6kLs1/qeKVvn4bpSb7NGZOv8yPYmXWpLfe0zd+pkTXWaVc+tE0Enj2oytI49ogWP1KhHSes0V1TjoTrNEnfqRKe5U0dIrHpYV09mndF1T6ijxOihtlBHsdbxnoqJq31pFOq0d4naMxHVWpkjbJ3tl9D3TACAPCv4k0deQryPXygDYGYZ8hlgvVFd7QDya6W66sHVV1eqpTqzVqpTPay31JFHNZlDHQ1PSx3HpOm6akJUZ9ZDD7suGmH7luq01tZpbuu0P8E6zZToOmF09ZTqQl9C12mIx9bR3FxHNNYRUZ0i64PrhFqdPlOJsetkZmzdEMatA2DZ4D+T6C44+i++sghmiNoBIGvRQaMU6tjb0DNlSJ19nmqd1+3hGtWRntSF9Uod19C6pERfHc/TrlNd6kgLdbJm1wmtI009UV/RbF3oKxoPyXl4VOMhWugjWlSn6DoN1WmW2PYt1QXdrIe9iGnWJZpSrPM01yWwXqqTOUenzpCtE+9EdQVqawAsB3BZBGAA0aFQOHAYv2a9fXVhPakLUI3Udfom/aJ1sxb1lX6dXgTpSU8i7JWrE52HagL3kqE6zVoX1lUTVA9enVWXGiKsq06zaESujjTVtSat05yHrqnXaEFXVKdZdbOeraNZdePV9dCPEvEyolXrZIQawtRFuhD2Ikp1ilnPPYPS2UviTj/Frwc96UWUniGqy1BbAwB0wWURzDzVgyNzQNXgXrUas9Y56JK6sO713DPavTrrST+7Hh3mQujlR+TV2fTr9Er0sE69ZI3o9KJ10QiOVadZNUK1RKdZ9c5eooV11WkWTXXWZNg61sTHqEbDaEGnWeJQ4yn1IkIdZx7VRUt7Uaw69yPMeq5X6EnDeLN6sq57RbqQ60WEGousl3rpXkyy3umX7FWiuJcls1eRvl4ALFNwWQSgh+zh0XhYEWHd1+S89sDtrJcOMtKTNYLXRc/1yu5letma0KtQk+vFmoxcr9L+Wkda6EUvRifCuqkhwrrRVSNsDa+L1ulFMWmK9eqaeo0WdEV1mlWXudQr1EjMyHpUQ+i6J+qlaA0N1XM1hNVlpL2IsEaUeimmJuollHoRpV5EZ42w+2f2imjoBQDogssiANM8IKRX7cAj+g43Xq/0slrUK1PDlwXRFVvT6e+xNbrOs+hRf3ohTfxEtF6psXpYJ03WiLCuGq2LRoT+NAu5XqWa0J+G1WVNNSbVRWNdNO0XajydGkI1GqrLXOxlamz/oOdqPEHP1UjMyKy9OkgNk6x3amwvjjzJetAVU5P2Z2xNsl7tNSWm2QuApQQuiwBkKB5WhD2wLBU/0XfQROuZXrlnCjWFZ7KHd6d/UqP9szXiJ6Iaoyvax/ayfWyN6kGjddEI7ZV7JtI6/T3ai9dVoxfVaF01QjWafWp7kRZ0mRnSPaqxLhr7VVeNkJjXVDfrWmM17uWnqJfMqnENYda1JurlifoQEgc/Ydb7nimQ1HTQPkSy3ukvlPpnkfWoxpDV7TMllJ4JgFkFl0Uwk5QOiRp9Nbn1ak3hsLKHbbReOhCTPhyTN9eHvJk+rBk/YfuoN9eHCOvi55hf830I1Ut9tFdUoxrNgu2jeqhRjWaRCNsn7EkvVpe1oMscdKOxLhr7CVm3vUIfT6cPYbSgm/Vcn1AjMSNz1N/UhD6EWe/0EaI+hMTZPp5sH/EGP6F9+FWwfWy9In2KFGoAAOODyyIAQ0gOnXBolQ6jjM41Q/p4LXdospbrI1rnQKU+Elpsb10v9iEt6aPebB/xc8yvI1Rv6iOa6qFGNZpFIoJm9CF9bC/Sgi4zQ7pHNdZFY7/qqhFGy/ZRXTQip9k+AYkj3axX+4yyEbJe69NB+kSYPrZeyfUJz5gQtKSm2FvmlKF9ehmnBoAlCi6LAAjRITPBQZA7lHK9I41I9swdYuP05oO51DvXx+idPjTz6wjtHWn0YnoQtnenj2o0i0TUetOa6qqFPqoRqtEsEhE0o0eaHbpGFDTtr2uMrAc/JaLZPkEj1FvQ2E/Iek4j2E+B0Uq9iZxGNPf2FHvzq9DTmyj1zjG09xBKvQGYRXBZBLNNzyGQO6Q6mu+R82Up7Sd67oBq3S86qAWraQ3PSe+gmd46s2b6MDnNw5rovb1zGkEarXk6mvETVgt9VDNenlWjddWIkiYhxYTtF2mqi6b9SNO+vJZqhNGyvTnyaI36JWaMFu3niTRD1FsYsh+R04jW/bR3hNRGekUjOj0qDNmvxJD9AFgu8GWRP/jlBZ8IABToOUQivLfzuZTTPKXDNYVrEz1oRg97lDTRo2cpaX5YjeOSJj0IXWdN9CbNj6DRS02jWTWiptEsEhE0o3c0E/NaSSOMpv1II2oa66KFHhIzRgv7yZzTiLBfj6a9cxrriqyXtKCbPjmNYL1BI8LbZshpVBv2UwoaAGAY+nmErywCkDLkUEm8xcMwIWjGW9UI0Zs0PyKNKGnSw6Ka9bOW9Mhq9EIarQmDNJpJE71J8yNo9FLQyK/7FTWajca9PKqF/gWNe/qppHX60mjQiM5enpxGcUkLfYmCRkSaEPayVLRI1778KlQ0Iug9WiDR2JvTGhniBWA5g8siAAm5AyJ7cMrcROFgy+4ls6V0cKcUnzPZq6qlPVo1D2u0JjkxWKNZyD1TqlEeaTQXNKWq0SxQzL2MFvoXNO5JawWNiDShptEcmEQTtK+lqtkerZpQ2j8lp+X6hb0SclqR1v0BAAwuiwCMS+Vwiw6unFbC9Az+CTQ+AI1OZDV6KWihv6eqJfVWC/5WzaPPqRrNOY3yVo3qo716tNDL06pxvZ+aNcozGnsJWRtLE4ImHqZV85Q06muJNLPG9cQkWg3xR96cJjT1JMxzADDL4LIIZprmQ0OY6OAR2J8cQjmN8Vqnf48W1ky/msaHu+g5TVEt9PK0atzLaDzXNJqNZp+nqNEsGuU5TUk19md8oRetKS0azTnNoxrNNS3US8z0aYpq6iFymqdXkzmnEaQzNc3PQVNaNQ9rpj+R03rJ+afRA4BlDi6LYDZoPSQm0NIDl8hpWhsdihVNqR2YUR3Ro4U106+mtb5tqtleqcb5AC308lQ1mimnl4JGeU5jf6LxkJwYpNFMSapJzrRoMjdrfiadMVpKWkdkNZmrmp+DptQ004soaoqs9WpC9e01ZGtltkyiAbBcwGURgAK1P/yHHgzB33qQ5Q7DiqbwWkHr1PVooRcNIfSqaKEnaRJaTRncK9Eoz2m6R6qFXp5UC70Sn+ZhPdECqSZzViNvTuPIk2rq9WQ1mYOmHkK0Ib0iTTysKRXN9iKKmiJrkSbQ86VkNZnTfXqp+Yf2AmCZg8siAEPJHSRGqx1euUNRqdZVtKhnorEnqZ16Lz86dUbjuaDZurRXtY50IdUoD72MpnlOU1Kf5kqq5Xya05xqtV40c53EjGqaE6I11Y2yEaqpR4g0mdM6Iq0jsr1G4fi9zFraK0uul8zZXoacBgDogssimBlqB0NxzR82U6vLHVy1g05prUu1njrVcnWq5TypZntn6wra1OqM1lTnydXlfJqH9UQLpJrMqRZ6jZTmOmJadUTqIXKeoAktdTQX6wydOk9al+0l89C6QOZZAuPWAbDMwWURgEmpHTCe2uGTO+QUXssdUKYu1Gfqcr2jOqqp1IX6nMdoTFpH62PWWU+q2d7j1FGe0zTnWDQeRmOPaFGe00xOdDTJx62zZOtkDKqznlTT3EN5sU4p1DG1Ok9a12HcOk+uroXeup59AVjq4LIIgNJy0LQcCjmP16IDJ/HUemtd0dPYO+ep9qbc1OU8dOGwHkY8oS7jSbUhHo75Ne8p1YXePZ6g0YvVKRZNc/VWPRlNc6JUF0i1Rg9BWiBX52GPqWPPKAukHiLySF3wCFlPQm9vT0vvHM2ewhoAYIS/LI4+nfhVXkb/AWD2GPxxXzvAlAEeXeM5PcAaPHoRiPbo81CeaON6Um2IJ5B6TE6k2lAPx56SJ2g0W51i0TRXb9XjmchjII0Z12M0RnMZzDgeodWja7Z3hyEeYWxPjaQegFmAPk9GnyujCF9ZBKBE4ZCoHja1g00Zx5N7lj6Pz/WgVk96cLNHwmYP5UM9FPd4OM55OBvR8SQ50euhuOJhTdesTrFomrOHqHgCAzw0MxkPxeN6LK0eZlKPzOpJ14kWT2DKnpRqDQAzCC6LYDYpHBJK9rBIaloOFHuAl1BP6JfW+FzXmj0mD5iarIfWKx7NLfzsLR6a+XW+JkD1BY/mHU+aE30eydXf60liIs1bPCEnGj0Uk6Y5EXk8JY/F7tHpK+Q8IfdwzSgcUfBEpB7NDSEf4EmfPUeLJ+wppPsyPX2yNQAsU3BZBGBc9ADj1zrq6RxkmTx4Ze6Qenp6qifql3okD30pTzyaRx6a+dVjasKehRoieDgr1FBsPWlOL32eJOe4x0M5a4TouTzq6afeGomZmkcIeySekHtSTyeXwRgPYzwWrkk9mgtRjV/jvObxRB6tyVHxdHLj7UU8xX0BAFlwWQQzR/agKBw0Qw6V9DDt9DR5c19fo16eCz2DJ8mZpCb11J5b94xqTB4gTcLg4Ww+5yFwvfUkufVHHpr5db6GY3rxceQp5Gl9qYYIfvVIHjyUFzzFnIbE1sOYnGsIia0nygW7h3o6uSHsIZ40J3I1jKmxRP7Uozm/zhPt6ed0vYjWeLI9DelzVil4s881pC8ASxhcFgHIkRwCQw4bPVR6Dz3fM/KmexTyUNPwTOop1phcnyF9Js2ZpJ772ZokZz8NT+ShmV+7edSPXii3HpMT6Z59ebGf8VCuHtVZk5wIOWE8Tbmn2E89mhtsP6KTy2Ck3nqiXIj2EI/26+SeyO8pPpOht4Zf58nmpiZd75D0b6H6fgFgxsFlEYABhAMkPYQqeXTQKYVc++vB1XJgFWsqe+ozhVp6MTmT1Kf9W/br9Lc1JmcoJk1SXqvktr6vv81L/UJOs6D+oOVy0SgmmnNC4qhfLfcU+6lHc0PITQ2T5kJUr/1MTZR7+vbrzDXE03lGfp0nm5v+TX6i5ZkAmHFwWQQzS3p4DGGcWq0ZqzY5MNPDvXPg+TzaL5NHJHlpP83H2W8+97W2ntYkD96enDVWvDYw55g0j/bL5TwkJ4o5IbH2ac4lJor901zgelnTfuot5oaQi8f2IkIuZOtNTfN+Qt9+TSQ9BjFOjTJJLQBLEFwWAZgAPSCjgzA9SAq51ughGXo01hPp/ppHFPLs/tQryaN6yaPahjzA+SgM+3HWnzPSK3hqOdVm8shbyRnJtU82F41ioiVnNOdXIfH25h5bT3H0bC35KGNCLp5Bz+7J5qYmyj1N9YTuZ3oRzfVEZn8AQBu4LIKZJz1gOqSHS+Ww0V69PUvogebRgy3q1fcskocetZxiW29jolZLcyEPmFz3i7wDco5J84RefTln4/fiITlRzAmJtY/m6k3zcXr15dqLCL0E6yV6c36dx+a8NwVT6EVEua+xvUM+Dslz5Oh7tg6VXgAsZ3BZBEAIB8UUDwQ9OIu9B+yV9irlgVre2KuU13qz14+oNs1p5tduHvXO1Q7NaaYX0vu8Jmck1z7ZXDSKiaq3JR9lTIjFY71Ec2/PJL2JTs6vI2xMdPK+Xpo3UNxrjF59pL0BmFVwWQQgOQjSw6hKeoj0HCram2fvLeVMrVdl377eepimeaCWU+xHVJvmNPNrkpMvyXkoko/bqzfnbNSnpZaH5EQxJ1q9lZzJ5ORjrxBy423tRfT1tnTynl6qd3JPX29L1lvZq8aQfTskvQfVArCMWMEf/ftGnwL8qp8N+KwAM072U6HnYIpIvQNq9RAOz5Dmdu7bx+aVNe2V9g65eJtyqpOcsTHRWFvMOZO61pxmyoW+WkbyUJfLRWvyZnKaCdunKefXeWxOcVrLNOS2rpN77D6EzWtrRNQrmfuesUbfvjUi74A9AVjW8CeGf6H/+oGvLILZY8hBYLx6qJTmcfsytdoGb3gWWSvmdvZrxZzqTF59BvEGEm/0DD7uzTnrPkM2p5leSO/LORvVtdTykJzI5hKH/natJ2dE78u1Ls1rfQleE7jvKGRsTHS8phevVXI7d54h9Rlqz5AyxJsSvOmzZJ5trL4ALHNwWQRgXJLDTw+O7Oy9xXXpo3naNyJds3ltjWj1ZtaiZ7a5eLM5+dKcs0xOvjSnmV5I78s5K/TRnGbKSachedFrZq2LctFCD7tWyXN1pZwRvdQnzWt9iNY+BOeCjYnWNWKI1xLW5JnSt6X47KVZqO0JAOiCyyIAluRQGZtan541Pcj08ItyO0uf7HqtT1pn8766NKeZX5Pc+uglrUtzmumF9DTnrFCX5jTTC+lpzlm+jkcSaw8aaaz1nKtXZoK9Sc6I3peP20d9aW59xP7qU6pL57SPnbN9Coy7NoRp9QFgKYPLIgCt6AGWYyHWbL7Y1kreBVrTywfPlHOW5DRTTnqa00w5Z6Nc11S3Xq1Pc+vr1MlQcrmy0GvEYl1LWeg1AAAuiwCMh14IckywpodWZzYXjs7cWpf6bJ72Xyx1pJfqSJecSePUy9mwnhSrrjkjepoHnwwl7ZHmjOjFnkYnSr7FVlfypXNvXYH9sQYAiMFlEYASelg1oAdPZ5Ye2XVzCOocqO1t11Jfbc3S0CP7jDa3PppLdaSX6khPc84G+tKcZnqxazQnayGnmXLORrmuqW69obfNKZZh1xjxpHmnh8mZgb5J+3fq+HUem6drlppvnB5M5ZntbN+2aB5A7bkAmEVwWQSzzcCDRA+RaG7tUfO1rmV84VlkTZ8pfcahvs5eNk/jJC/uleaciS/NaaaXIT7NE984PQiKVdecET3KC2uDeshMDPHV6iw2L8VEyJPeaV56ppovJezlsTFRW7PU1gLJM3XmRpr2AmCZgcsiABX0YAiHXR9T8OleerCFZ0hn26O2b4Ovs5f4snmDjynFRKkH6WnO2eQ+otiDZso5G+U8KJHZelWPchubNSajT8VnsHkUmxqithfT40sp7ZtSeyY7R3vpnKG2l6XZ17AnALMKLosAGPRgqR4wrYdJwZfuoYcU57Xedq3W26+VegedXkxe7Z2sFXunOWdlH5PEUY3mNIsv27vRF9Zo1jWrJzljfAT3kZxm6w2x8RDFmqE+IYpNjeZMRq/6BBsT2bWkV5qXniEl2ztDqXc0J9T6Wao+s0drPwCWK7gsAuCxB9IgKjV6wGjvcOC07mN9Ekc9dS71ru1javQATnt1ctuvEJdqsnrGxwysqfpoFh8xpIaH5uoxOc2E1mrcXEP0+fh1RHNNQSeifjITxZok7/gKZPdJeqVztqaH3t4ZWnt3qPQEYLmzYv4TZxTx69ifTQAsE8Y4GPQg5U+f1nrr87F+6pVmJqkJSJyttb176gOZmlIv1XP9+mpCTrPx2V6tNR0fZyM9W2N1zTkTjI/gPpLTbGs1ztUwooeaks/DOtFak+r8OoLrKeirSXVD2k8p9QqzUKyXmUlrzVysqcA+6RGecwCt+wCwnNHPA3xlEcw0TQdC4aDR2t4etj7pVexRqjGxHoDZHj317PVxqE17VeqzNVanF5On9USnJtWTPNBSQ7P6jE50ajjL1/DQXD0mp5nQWo1zNVbXnFFdSD3VGtX5dUSIxVOsUd2TrffYWmLQ/h7rSeem/WUOpL2Eak1KoYfSW08UagFYzuCyCMAQ/EERDpQxDg2t5dnWl2JPVGPmiKQ+eEXX/UJtsoelVGMP+Op+mZq0l62v7qc5zeKzcbaGZnpJdV2TOO0b6Yrk1mN7B93EtjdR0zm3scy9vTxaW/Rk8lDjKdWU9kvp3d/T2S9FvekslOrtfmlNC6GXr80+FwAgApdFMJOMc0BUa+yBZWKtGbJfVFPom8ahpuQxpM+kNbX9Uk/vfuTpqcntV/KkOsGxrtEsa0WdholzfW0ND8kJ9djeBOsmtr21pqQTITYeoqMLNY/mNHdqhN79PJ3a1JPOCaWaTl+htF+pf5Z0P09pjw5D9lHGqQFgiYLLIgA9VA+ZAqHGHiiFWA+36JAkMrH2TecckcfXB29lj1Bj9yv4U09ay1CsazTLWq2mz6O6jUueSNc1iYOnpJvZerK6iW0tUdRtXPKo7kk9mtPc6Ss09ZWZyHq0VsjG6jE1RVKPzNU91GP6lvwB421mnBoAZgBcFgGYAnpYZQ+thIm99kCzh6fE7C14NFZP6D/Ak+tf8qhu/ezRNZplTXVG4pJH9RB7godeCnqLx/bXmVBPVm/xEKLb/mFvySOPzDmP5or6tb7jUV2oelTn1xFNHpmJyKO1npJfvWGusb+8AIAsuCyC5Y89JAbE9rBjxvQwPg4HY4PHHq4lv3pqz5B6cs/Q4tE49eSes+RRPVDxqN7s0TWadS2j27jkIZ3iNFdPqJOcaPKoThgPoZ6gEy0eT9WjOr+OaPLI3PForWeQx9PsETrPKWTjFo+nOdbn5NcRQ2MAlhO4LAKwn2k5QIZ4at7BHnNo21gPavWEflPyRJeFBfJQ3ushTWLC5kEnTWaC9RaPsKAemafm8ZQ8HXRtUo+ykB4AQAQui2CmsIdeiYXw6IEbPPYAk3ghPKqlc8DU6cWAc9NjGh6Nmz00q05zEo/tEShOc53tcwTdxmN4aCaiWOZBHmF/eDqzRetkrdOD2E+eLLU1ZSE9ACxxcFkEYAD28Oogh0bnIDNxOJQr1PbQteDJ7KP75zy6v3oCJY+S1Ola9PY0eNL91aO1rKmHZvUkcdo7eEyc82T3p1l1ExM255gCMxO8bmMi9dg446E5io2XdYpltnVE6Oep7i+0eFQLsyfqQS9al/N4rdTbeqI5R21NyO7vKe3foWEPAGYdXBYBEKoHisUeLoWDKqW6Zg+0Uu+CTmjv3B5Deuc8nd6VOusJdYknoB6a1WPWx+lNM2vqoVk9otvY1hGkRzH5iDQ2s+pRnHpMTDPR6UeUPJ5Sb2Wi3jLrWlTn6a3zlDwB1ZK1qEdLb34tkNtXqfVuodYbgBkAl0UAGsgegELtwInWbA8ft9R1PPbQS/oF+nqLlz2Fulzv6JmG1uU8Gc32rtaph2b1qCZxWkd5qY5yGyupHmJZI3i2MSEe1k2c1rEuMWO8RBSnHk/oYWZC14lcHRH5J6zLkqsTbJ3VGV3L9TZrpd7ZOqWyVn1bAJhx5i+L5rNtFHY+hQGYLcY9POxBlulR/Mwq1Umsa516UxcdeLbOeAJD69RTqNM4Vxc09chMLFidjWmmF/Jw5tGYZh1WJ4xG2F4hNp6+OmLSOusZq86S1vHriP1VZ+eoTuZsnaL1hmyPgYxbB8ByYp/5RMBXFgGwJIdP7dCI1jKHVkrwW6/ETfs01rHm13N1enBHdVYbUBdpxmt72IuCkqvTOMzqV80zjboQ06wemm1Ms1LxpL1CTIiH6PRWr41lHrvOY+sYrRNKdbVeoYd6+FUYUBeR6dWpy9FT1yHRor45v1KrA2BGwWURzDxjHwaZA6fYq3A4Zf3i5bXcweW1UGfWowuAUupletR62TqNq72MHnroTC9JrHWhn9GyvehFPaSZ2NalPXi2Mc30It6oB806Ej2KPbZXiGXWPiE2s43TXkSnzqNzp87GyUzkehFa19eLCHWqaZ3Q6ZFQ6mXrIjK9bF2O3L5Mxl/09lHYG4DlDi6LAAzBHxa5gyZ7+GQOPIU1e/CYOOuvHFK5Xtqjt5fEkd9qppfdI/itltQxiWZ7pT36erHmh+1lYyL0IE1i2yvSyENJEmsvJtGj2M+E9gqxzNpHNdvLxlEvetFYZsL2Zfys/W0vQvW+XrZHtZfxE8HrsX0Dxh956SXnF6JnlLnkL/YSrbNvCe+vricM8QKwnMBlEYDMoRMdCoUDK4vxZg+WSi/223Ufd3oYLXdQR5rE2tf26mimLqslvTjOaIyPc/01Ds9ImsTZ/hIXNcKs2166HvW3Mc30Il5dt714VDyE7RVimQmr2V6M0YhoPdE4NrP2CHsZzfYImifXi8lotpeS6x9ItOD1RHsJ2edWEn9nr4ROPZHzV3ooUa8GPwCzAi6LADSSO5T6DjLGrGd7ZOpzh1aulvHrxWcj7P4aZzT2a5zRGB8XNU/uEmDfvtA3p9GL1LEmse0VaeTReBTFmsS2f6SRx2r0IlpuJqyW9gqxzNE6QdooGq1TYLQQyxyt+5kIvTyd/p7SXozRiKi/kNsrpxFal9PSvkxOU7Q/vwqmr2L3Chit2F/g9Z4eAIAuuCwCkKPv8Kis5w6kziHm16uaqc9qEkc9rGa8RJPm46gfYbTei4LEtkekaZzTJC5qnrBXSZM4aJ5IS9ajvWQ92jOZUw9he4VYZsJqXCcxU9MoN3HQPFFc0YiwntHUT1iNe1kSze6l5DRGtKinasYf1gtaVE8UNAuvJ5qlU5/Qtw7ALIHLIpgJcn/wT13LHEyRT9Z7NYG1vgPQx1obelgteHPafE2kSRz6eSJN45wm8SCNMOtZzQ+CZl3v1UzMs41pJo/V6MVoWU9FC7HM0TrRoNlnYHo0IlpPNCajhT3pJdGYjBbigsa9PDkt1FjNY/dXchojmq2vaZbobavR6gNgxsBlEcwm4xwK06rp65NZzx12rYfm6PDlMNHinh3Nx0XNYjX1Jpr26Wie1gtHpEls3y+9WrKuz8SxrFuN6HhoppeMFmKZiT6Ne0nMjKFF6zL3aQTHAzSL1ax3qGYJb5shqsmQW++rCZj9qjWZ5yKtU5PzAbBMwGURgEkoHBqth1jQzEGT0wK2d09Ns6ZxTvNoTaRJ3KoVe1dqBmnJOj1zWtPR/KhpLR6rhZhmesloUY0wDY0YXNOqefjtoTmjRTUyD9FCbGjtEyho1d4AgGZwWQRAaTiExj5ocn3G1BjRxunDsc59mvbJaHpx6NX4NaPVasbQQkxzup7T6CWjaUyU6kJc0vzofSZ6mYZm4pw2qI/OmfVmTejTOE4Yp4+S69chqWEa+jT1BmAZ4y+L++Y/EfjfdsGnBQBE8TOhcuBENRXNoge3pU8LPa2mcUHL1shc0jTOaYFE49hqGhc0Ilpv1PRti9Z7tBDT7EdO0zjoknOceMKcavTSp/kRaRIP0gizntMCdl1JanTuaJ5Ob09Wy9TktKi3iZVmTWZG1ns1IacxmX0AmC30s8PP/m6IrywC4CkeGhX6anLr1Rp/QHXWE43j5CDr06KeVtO4ojEZLdRkNPLrnq1aiCtatO5nok+LntPGMkfrMmtM9HnCbGOayUOJWe/VTMwzUdM8umez5omeUwgav46ItMx6ryax0qT5OOpH5DRL0rOJcWoAmGFwWQSgAXuwBowWDrMeX8Br1QPQE61neuSeKboAyFx6zs7+icaxatIjiisak9FCTUYLe3k6GuUmLmlcZ9dVo9nGMhNW4zqN1WPioHkiLVmvPRNrJs5qnrBXTvOEvXIav46ItKQm0iS2GqMaoXpO82Q1EytZTWYmsx7h1yO/0PxMMltyzxTRtw7AMgaXRQBSpnEoJD34cBItOqgyWvUg9Wudgy7ROE56WC2qV834Q2w1mdO9GNXEr3FO47iiEWHdz1EvItGidT8T0XqicWxmGzNGI9hjYp1tzLONaSYPJWY90kzMM2E18nh0Juxe3IPinCZxUbNYTbyEasX9FasZL9HRfBzVElZL6gm7v653eniK+0/INHoAsBzAZRHMNrkDSuYSnfWhh5TxB2/mOUgr9hK/XY8OViFotldO83Cc9LBa9uJgNZlDX50JoxF2PfSiF41ltj1yWojNHMUerhMt7CUzYbXQS4fJCZ2JSEvWQ10Sh5kwceib0bSOY5rVk6xrnV23mhL65jR6MTrR0XysfW3/oCX1RKRJHGpTTC+L3UvJ7RWRrHf6Dqwnis8NwDIGl0UAhtB3+CREB7LMJXg9d3iJZutDXPDbXtG+uV7aQ+s8OY2wfaNeGuuap9pLY62TuNjLaMW+MkexeFTj2Mw2ZkgbRSNMXqvr9CePaiZOe7EmcdA8ad+ov8Taq9RXSXuFWGfjLfXqaITEusZYzdRZgmZ6Rc+YoL2qZHoVSdZzewIAYnBZBDNH8+HgD5UhB0n1kModUBW/7RWeQbVKL/u8nTqP1Up12V7aQ+s81V4aW03I9bI9aI7qNJaZCOviL/Ui2CuarVOyvXSYnAiaxGEWPWj0Yrwhplk9Zj2t45hm9RivjbWOkTjbS2LbQ+dqL34VrGbqQi9PTkvrLFF/wvZKvJamXoZarw7eW+sVMaQvAEsYXBYBaCQ6QGqHRHLY9NXZg6xzSCX+qG+uTrVcnWh9dVaL6vh1hPYo9erUiZat01g8ubqg0WxjQj0e0rJ1NjZzFFNQm/1gTBxmeknibN0omtc8aY9iL0+2jmb1qCax1qlORHVKpU7jai96MTrRUscU6gKlOqHjV7y3uOaJ1jJ9AQDz4LIIAFE7LGoH1AR1nYNM/TLb9XBITqmO46F1GufqNDZrpTr1DKmj2daFWGb22NjMrNvYzLW6zuwhr43DLLqNW+tsnNalPXimF40TrbmOX9vqmEJdYEidZdw6T9AqdTmydUJTXYbaGgDLAVwWweww8HBoxfYY3C9zuIU487yBnrqsTtTeB1qX6611pve4dYT6aVaPvSx06tRjYzNr7xCbmRhaxzn5rE55EoeZXpKYZ8/EdZ6oTj1mvVRX6h1qx60zhDUi6ZGtkziqS+its3ofmR4TMY0eACwxcFkEQKgdXkztkMis2QNv3N72YLQ9Or0zntDT9C7WtXj4VRhSZz0apx5+Hc3q6XiJtE49nlzv0M/GMgePaLZOsX2IUOfm63gW3cY8U666EDR6US9h4qhOYp3TutbeSuRRhtaVPMnMNNSlnhxRzxyl3kKtvqU3ALMMLosAWOyhNQ61Q0V7G4/dh+PM/iHWuoY9aC72NvWDPNrTzES2Tj1Cr0fjxEOzekIsc/DQi/Ezxkv0eXK92Wf1KKZgvpfqNubZk/XQrB6aRbdxWqf9bJzrzfR4NI5mQtaJWm+laX+Zc3Q8mX1yvZVo/wK1tSoNvQGYFeSyaP996PACAPDYzwaOM4dI5zPGHm4lah5dSzzRnsZTepaqR9aGepTg1brU6+n0HuLh1xFVj2jqoTnSbdzgoVnp6Ca2vQZ7SJOYZ496iVBHL/vBo89ApHXqDZi6IR5mqMcTPDLnqK0pHU9mT/ZUngWAWWX0+eNf5RMJX1kEYFwKB4s9pOyhGOkyE4M8ft7fnvB26ZzAXlmr9pvUo/EkHsoHemgmD/tS3cSE9pq2J7CQHkPwytwh049J4ml5lIk8huLbBQDIgssiADkKh0yWFu8Qz7S843j8bA9SjmUtHMLqUZ1fR4zj0Zxm9YV4Eo/qNi55SE88REeXmGfKM/q0PKoXPZor6pF4HI/qgZKnQPDKnKPFo4zjrdHiUYZ4AVju4LIIZg97GPYxBa89dMLB7edIl5kIsXqkpupXj/b39Hr8XOyZerSWX0eEOPVoTrEM9Wjf4NGcX0cU91bd0+tRnejzWN3E6iOPjUOdJ6e3eBjRib7+TOrRnGbKRVcf0bK3xqkntzeT8WhtwMQtHo3TZ6j502dgbGwI/RrYX14AljK4LALQgD0UemNzkPWih1vhkItIvNXnUI+pKfpTj9by64gQp56kNqpJ1ko1TJ9HdRuXPFY3azTrWlE3McGxrkkc6gp6iD3BQy8V3cZ9tc39ZY3ndI1mejF68BMFj9YySVzqH8jEoUbmGkO8jHmmvudgbAwAiMBlEYAC0aE0zkGiNZVauwfH4rWHcsejpP0L+0T1xhvtx68jQpx60lqB4uYa1fl1RNGT6oTEukaz1mR1wniITl+rmzj0klzjUOcp6RzrGs26VtIJE5f6qs70eFKdSep7axI/kXpyz5QSvMnMFOrTZwoU9iCy/RspPhMAAJdFACy9h8yAQ8T24tgefq1ojdm301cIsffa/WrPXKoJ+6kuRLHxEJ0a1fl1RIhTT1KrOcccjbRaTUf3FPtKntUlJmzOM+WUlHTNheChl4wn7UUxD0+pb9pL/UzBU+rFJHHqSXtFfiHU2LlUU4ij/RpJnzFg4wLRs9bI9BryjAAsB3BZBLPLGIdTQA8QP9v6pl6mlrAHd2+vpDbsr734dUQnVk/Sw+bF+tSTqSWyb0ulJtWj3MYy52oY0TWPYllr6aU5x0lOhJwzswe9WF8SV2s46+o2bq1RXeuJyENzoUZ1JomztTRXagK2xsehNpkjCr3S/ZtIeg2qTbG9AJghcFkEYIwDoHPgaI9KL1tTPSDNXKrJ1hNJj3CYV3qldGoaenV6l2qMrnm2nsjUMFpj9I7PxoR4cjVW17wze7Rv0ClPdc2F4KEX8mhOM+WcZXyceURnbA3NspbWpHqA4iQv1aR6lpZeZu6Q1Adsr2SOKNUnFHtUakpknwOAGQCXRTCTjPOH/qAaOYiqh63B9i4easlse9fqozXTg/W0V5p7Sr2LNX4u9SY927uxhuaaTxlSk/N1ZuMJuuY000vGxzG90Bpn/TVFH2ce0YnWmkinWXKmEJdqSr2z2DUTd3onc6BQXyPt3URP72yvxucBYDmAyyIAiv7hbw6B1gPH+qoHi5nZZ/Yq0do7HNpp72Qu9Ut72x6l3qRXfQLFaT5x79RnY7PGiK55i481yYlQSy+6TnmPj4fEnR6cdWtafRE2r9RMo3fA1tCc9MjqKZl+NTq9kzliYG/G+LI9AZhBVsx/NsT/5B8+ScDM03O4tH6OWF+xRg8/2VMP1/AM5lma+nmKvspeVu/1GWwexaaGKO1FuuY0N/soFtIazW2N5kyPj9DcerQu5DTTS4OPiNZolrWQc1bu0epjSjGRqen0ppcGHyNrjI1TCr5oT5plLbuXpdCvSo+vuBcAs4R8ItCErywCkNA5KPRgSecKrYdNzWfXQpx5Fl6TPFwUMrn1pWT3EkprrXuRnuZMoufqGNFD7mEfkalp6dHiY01yItTSi65T3uqTPGDioT0m8tEsOVOKidqa0LpXx5fMLXsxtTVLxVd6hvAsSuteACxzcFkEYADRYaIHiczhAO6ZOweSoXUt9dXWLGHNPwvH5tlsnr4tNk99pbrW/qSH3MM+gddGIZP20Jx92iPJrU9zpsdHaG49Whdymumlz6c5zZSTLnlAfAHySpjtSTO9WJ1ear5SndVpLvnoxeQUF7Frqa+2ZmlYi54tNye+iFp/AACDyyIAC0B0SOnhpAdYktuZ6wrrrXWpz+Zp/6iOX+exeesaxYPWdO/0WWTWZyy9Da11OZ/m6mOv1SmntTSnmXLOJKeZXqxPc87a65g0HnfNUlkrPjO92Nz6aK7V2Tmts/MYdYysAQCmDy6LYGaIDpaExbxm8wVd00NbD+Ek14M7l5Mvza2v1Gcx1IXcw7HoxZxmeiE9zTlbZHU0l+roRdYYGxMHci1lqawBsAzAZRGAgejBmmNaa4P7yGGll4BcznWFfJK6/d2H9FKfXJ3muTrNa3Uh15heajnNlHOW5DRTTnop56zQh2Z6IT3NOSv0oZlfk5x8ac5ZJrc+mqdRlyJrWdK1IV5LbQ0A0AQuiwBkyB5sY6AHZTiwzKyHLJPJ7Zz2sXn6rLVnr3n71pq9+kyFZ+08eyEf2qfUN9dH82ofD8eid3KaKSe9lHPW00dzmumF9DTnLJOTL81pphfSJWdsTKRrQ7yWNLdkvNlnpTnN7Wzr6CXN7Zz0qSLeLLU1AGYMXBYBGAc9SPTQMnk0J6QHWO1Am9grzxAuDA25revLi30E+0wUp7nCa6ZXLrd79OWM6BP11Zhecjln0rMvp5leSO/LOSv0MTnFAVkL2NgT7UGzzX0cdHqp5bU+NNtc4kCaW/aX1xOejV68N8oBAE3gsghADTmI9BDsO5iI9BAacihla9O9C8/Uyfl1RN8zpd6Q+14cm942pz3TnGnIeR/NPWFPIeSpt5DbPVrzXJ+QezgWvZPTTDnprTlnPX01t9i84G3KqS7NOevmjHgZGxO1XOLQuy+3c61vH2PUlp4JADAPLotgZqkeCj2HTFo75IAJXj2cdK9Cbunbt/McphevDc2FtG82l1p6/r6cyeTk6+SjjKn1ytY25jSHvhTroDXRg1dzzqTH0JxmeiFdcka8SrWWZpuTryePqOWZ2rAnvfTlFukT6Ms9aa8wizfskakt0rCvpfN2WIbsC8AyAJdFAAQ+HKZ0CEQHje8Z9R64R3popb1qebbWEOV9vTI5ozm/zlPrnevVl1sm7ZXtTbpZC7PGHvYma6yPmVsm7cWzImsB66U5rU1zzob1DjT20jyiL08o9WZ6alvJ9gZgxsBlEQAic7Ckh0PzYaG9KodVX289vLVHJ+fXeWrP1ttLc6Ha23s5N7VNuVDr1Zd3etNIvOPmNPOgJDfLIHjWtQlyjumF1tKcs/Y8QGuSB29fzpkga4Ekj2ppLuRZCr2be/XlhtBD5l4G9AZgFlnBn0z0Ip9VzZ9cACwHJjgUwueK9EgPt/RzqZr7Ws5Nj776gNaYeWiv8OwyF3Mhqvdr0X49OfWy9RTb/QblHs4pEC30H5JLbPuzJjlhfVo/NOch8Bp5BuYBk4f9OOvPGalVomeluZAHKnm6Xzr30tersjeT5Onb0vEPoPltAGAZMPp434evLAIwNuMcOFqTzi0kNenhnR5iUe69nJseUe4p1osn7JfmAvltDeemppp7Qr1otDYopyFxp38tFy3tR2iudbaG1wbkHNMLrQ3MtZ4o9S/lDGmGqD/NhTxgcvb4PHjpxeRMpZ7o3a+BaP+BjFMDwCyDyyIAQzEHW3roFPPkcFSqua/hfMh+6tX9TC2Rq7c12XyUMSEXD3ltrjWWkJsappTzq+C1bP8kDz086TP15jQktv1Yk5zQnGN6UU9DTnT60UslZ6Q+eHpy9Qeon/Vk8qgmyUvPHJHk4zyjov2Dl6j4GcnT/QJpbgg1Mg9hnBoAliq4LILZpHKAWNJDq/mA0P6N+zDiTQ+7dE/OTf8o93T8xktQPk4Nozm/Cl6L+hVyW5M+QzEnJLbPkOZEyImMp5iLRjFpmhOaa52t4bWWnAZpEvPcU8MxaR7WKjlDMWmSBg9n3ZyR+uAp5AHKx6mx+Dx46aXH3+kvcwtFb8+enRwAgMsiAJbsATPk8PDetEcxl76dAzZD8GgNv84T5foMpm/qJyJPQ03nGYyXIH+okX7VGvGEPSW3NaGnaLTWm0vcVCOxrdGcNckJm2u91mVzmimveTI5a6zM14ecXkxOlPZMc0u2xmLydE/N0561GqbgD33T9RxJTamnJXqGHrLelucCYJmDyyKYaaoHSeMhwT1avOrxc7pvJzfeEqknPWyjnn6N8k4NvwriCXumuYd7UKD1pRpD7jmth3tmPIzmMhipt54o94Q9Sh7NJSY6NR7NtS6sq9fDazanF8pJFzqeJKeYhyfy0Myv8zUBH2c9FpOzJ62hOOfhrJsztp5m6ZHzKL3PaSh6MnnwytzB1LCnsq+l2I9o7AHAcgKXRQAGEh0kLQeHOdSKqMf0S2vC4VnzyKye3KHc54l6+jXK071zHl3r1HgoznlC7uEaCkQr1dQ8ISfUX/JQbjyMyVmTnLC51mtdlIuHKXlMbv0lj+ZE0DgreCjOeTgTxB88SQ0jHiV6LiJZJ3o9Jo/2tuQ8MhfxNb0eT+RJ9wUAZMFlEcwWLYdD4skeQD0eznv2GseTe5bI4+fUE/Kax6wRlA/1UJzzWFJPtobGhB7OJWZyHtHUo3nweDgmXT30IjnHnuDRnF5SreTRmOZCjaXZQzO/DvBYfN7kkbDZk64TRpvIY8h6klyfK6LFk9DiAWCpg8simCkm/sNfDpNxPFFe8+iBNa7Ha6mH8qrHM8ijWoOHLhAdT6LtF4/ERQ9R82hML5rTzKqnxxNpaZ7TMjkxtocY18OZYVoej2rqyTHEw7R4CrR4AJh1cFkEYFoUDiyLPeA7yFr28NK6iiftnTtMs560d4uHXwWvUR7qrMdokUfo9aTaEI/ETM4jWtHj4Vh9lNML5VYreCIt4yn25mxEsbdhnP2Z1EMvpBnG2Z8peCIkr/VOPUzi4d4pqUfmiFxdyrQ8ACxxcFkEQKn8oZ89kBJyB1LQBvZO67K9tc7Ud+pyvZM6qkn7Vz2q+XmiOutJ69RDpJrNJZ6kt3pKvVXnnGZWPamHZvFwTC8tHppFG9Sb5iTn9YLHMqRuKr2FWl3a29Yp2TqhVtfpnaGpNwAzCl8W5z8RKNqHTwwAGgifJ5VDJnvgyWzXOp9zE9Sl2qA660k1zYlU09xTqsv20twzpM4e7MU6ykVTT6ijPKdpnomJkBc0zq3GykizHiJXR3lvHb0YbaI6oqeOST2E8eQ0xtQFWuo8U6vLkakDAMTYzyV8ZRHMPNXDpXao1A6q3MGm+LXinrk61XJ1qpk6ItLEE9W21AmtvdILRqTJ3FuXaqauo4mXkTho6qEhcamOiOpMzPUa05rmREbj3GrqoZlVj2qeYh3NooU6T04r1VmKdUbjOa2jl7SO2E+9wpqp7fiVQi8l10sp9vTU1nK9AJgFcFkEoPEwadJyB5hSO2hydYVerCW9Ik3mqFa1TF3QTF1W48ijmp+jPTxpHdHpZetaNMmJjiZ5VqNcNK1jjaA8p1FOQ9a5XnRCNa1NNc6txspI6/SiF8pJF1JNva1apxfNRmMydaTx8ER1oilFjWZ+FRKN57SOXhKN8VrUi8hphkFrhT07ZLTaPgAsZ3BZBGAouYOlRuGgYy3pVdQUWevVhM5FwRM0sxZqa5qfO3uoZutymoy0V1FTVFMPkWo05zRPViNvTtNc1zxcTwGtq5df4z5WCz35dV4LvWg2mpJqPA/Q9FmIqsaZwWhhLa0jMprtr+Q0rY32rmgKrzVojNeiXkTOZ+j4AQBZcFkEIEfPIWNpPdCig0nWejWh9VAOmlkL/RKNdeOvaopq6iFaNJmbNT9nNZopadEkJ5o0yo3GutEIqyktGte3ajSLzjG/9muKauohWjXuZTSecxpBulDTeJ+EVk37hf5ERVN4rUGrEfUHYMbBZRGAAp3Dwh80Ex8gmcMqe3DKbP1DNNZV83PQFFlr1rQXYbTgzWlC0MRDDNVoZmRu1vzcrNFMia55Qk7r6uXXuE+fFvbh17qm9QSvjakxRtN9sponp5GX6GjUQ1Kecxoh9cQkmtJ5+zzBPy6+Z6dHZh8AZhlcFgHwjH3gyKES1Q/UiNxhNYlG5PaKDtseLe2b00r7k5b2HaqFvrIeNMpzmqCa7duk0Ww01jVng3h1TWjW6MVooW+iMarRLBIxicaUNPJbjNbpSzO/CiWNekgamEQzdPbyjKUNQeoBmEVwWQRgIEMOm5y3Wp8cSOxt1DoHvqekpc+Q02iPzl6iRX0LGhH1HaiFvhIzNY1moxE1zfbIaYTmul7VaK5pNKtGL60aQRqteQZrnnR/IqvRS6IxpJE/YZCW6LqXpagRmb7NWokh3h467zMAlhG4LILZwBwKQw6f3OHFZLTcIVmq7RwsBY2I9IpGBL1HI1jPaNHb4eOcRpCW9s5poYfETI8W9pO5pkU9PDUt9CB6NNYlV6oazQKv1zTRtU9V8yNo9NKqEaTRmqeqeXS/SKOXgsZDCOutGiF6r0Z4vUnzZDXzDEqxNvFW98j0BWA5gssiAGOQO0BKlA6W4sGUO9gKWuc5rKY1okW9ZWY90Yix9lNEa90vpxFhv4wW/ESPFnSZVbO9cxqhua5XNZpVo1k0oqrRLNjeiu1Naxzza0GjF9FVC5Q06WGxvZXQW2OdxRtphNECpEkPS1ajl0QvakSmR5EhXgBmHFwWARA6h1qO3AFjtNKhNaR35G3tbTUfk5brM6Q3Hd7F3g0awTpHHrOe661aqXfahzX1Jtrg3qqnmuRETiOCRrPA66Kp3ulDMb96VKNZJCJoNAu2t2L78PBk+0hOZDV6IY3WhL7eRc2PXG9L1Fvo7V1iaG9hnN4AzBr+slj49Gn6DAJgGdNzUDXruYOmr3ehptSb9UxNrg9poY+ui5brw3pjH9WiPjmNUD3RiOIzqq6aJ+xpNNs76DKr1tKHY9KtRi+iqc4azarRLBoRNJqFqA8r832sN9tHckL7WL3ax2gW7W1p7W3JavQieqhXTG9Lrg9T6uNp7a09OlR6AzB70GfC6LMBX1kEYFxyB07pEPLwp1xmvXQohgMrWe/0kTj4CbOe7eNj0nM1kW77SE2xj+oys17Q2E+oLlraR7XofaS6zIyss6a6aETob7Soj+oyW033CBrNohFBo1nQ/UONaoRqNItEqGZ17RNqVCNUS/TePqyMUF17E3adazyRRuT6EAP6cGz8RK6PxT6nkuvTR/RsAIBecFkEgOg5bEqHS1UvHWyKWQ+6rfFxp7+sk95Z89BhmqsJfttfiA5gjW2fZJ17ZWrCHoRZD8+U1AS/6jKzbjXV/dzpT5ro6TOpltawprpoRNQnjWkWtI79ots9bL1i+6jeqfGQFtalhmN+lVn0UO9RXfsQYV38RFQjeqcPQXqlxsLrolsvQ1riZ8RPZGskJEJs+kQ1mf68ntGZgp59TkPnOQGYIXBZBMBQPBB6DpLigaWY9ewefr20N+mlAzfUJOusW01i7sWRx6xT/6AronV6CVGNrpdqVE80QvW0RrVIN1q2V6lGddUIowVdZlvPMc3qo1k0ImhGD/WiB03QGtsrV0OoHmpUE1SPNHpJ9LBOGq0l5GoCSY3txcNja0Ivg63p9PfYt69Docb6o/VMn2x9C6VnAmCGwGURgKEkh0fnEOo7XPx66eBi3dabONQk66X9Sc9dCqKaZL1Tk+uVrPOaxEyuhlA9V0OoTprqMqsealQXLeol61ENIeusqS4aEXrpugzuRbOgdWFdNUI1mn2qutbYXmFdNaPrbHspWpP2Ukq9Qg0rI8J6poawuhLWk15KqReT1NheSmfdrEUkvXJ01pNeffUAgBG4LIKZpHpIFA6nbI14S/30MM/BNXbd9CrtVdyHRqYXEWqS9bCP6rZG1hmry0h7Ebymuq3xcacuV0MkelRDiBbV0ay6zIxZD8+gGmG0UEfrxsPrFKhH1lkTgmb0sC661oR10Tq96IU0XVdNyPaiF9WlhgjrssYxv46wdUpY91q2F71ITacXkevlsc/QIekVITWdvUq9PPa5IzK9AoWa4nMRlWcAYLmByyKYPXr+kI8OiCEHQt+BY9clLh5Gfj1b5yE9OhBNnD0opRf3y9SFNSJZ79TZGllnTF3QjZbWMTSr7mdeo0TXCdVpVt2sZ+vEG+pGaljXXqFGdK7zU6jTNdEJXWdNPaoRqum6yFoT1oWwrjrNohG5umhd1jjm1xFal9sr6Emd1vA6KyNsXVpDlOqU7DN47DModi9bFyF65xmIQk3uuUpE3tIzCEP6ArCUwWURgAHUDofaIVOtqxxInTrjLdVRDdfZdYl5LVfntd46jjzJeqmOdZkZs656VCdzUx1pqstcrCNNdK5TVKMhMdcYj65rD11nTVA99CBN5qjOY9dtndJSx5quC7m6oHmiOlZG2DoenpY6JfeMhK3LkX12pVBD2LoOyVrUd0AdAKALLosAtCKHSu7QVLJrtq5wMIU6u95Y11k3daXDdaw6rw2q09jU5dZVD33VI9rU62hdPaSpJ9F1TTXC1gSP6Iqus0c1GVrH66oJ065TinX0MmFdjmodUaqjlynWBQp1TK0OABDAZRHMNrUDqIatS3rUaqO1pEdfXVjP7M1ryXMoobZQx4e7YmLS++p4ncjURbWZdcboFGtdeCaaJc72JYweetO6eFhTj2iMrtOQdcZ4rMa1pkZn1bmHWWePajJCP4+uB49o6qnWEaaOCHX0onWZ9aDLmu3NlOo8pTrbOwevS22xrlDLlOqInjpLsUeOQt/eOgCWIbgsgpllkj/0i7X2gBnjsKE1e1Cn/UJtpjfXjsLsc/BaRidoz1Jv7ltaF73UO6ot1JXeXq2LamlWnWaJbV1Yp5HohK3jdfUkuq6pRtganVVXgk4e0QiOSZOh6+rRdfUoUQ9Z11rWZIQ6GqoJum7riBAntUpnXRjaO+1LRL0lJKK4UBsorJX6RdT6JnR6DKgFYDmAyyIAij0AfFw8ZBqoHi62d6Irtb1pLVrP9Ob1TG9ey+jKNHqH+lwtzaqbda1TT0DisXpLrHroLXpYp6HrJOi6J+S0LnPQZVade5j14FGdZtGIEJt1IvKorh7SZBDRumhEU296qdUSplaJvGZ9Gr0jzFq2R603UevdR9IbgFknXBb5EwOfHQB0sYdO4QDLMdG6PaxK+xd0jak+8hh4TUYg6R3WK71DfeLR2tIzhv6kqW5iXqehuiKa1vI6YTyht8QBiW0tr6tH4rBuczbM17Ius+pK0NUjBI/q6hGZ4FjWtZb35Gh+PfQQoh6ynu1NaC0NT8ejtbJOWI+uaz0R9TBrnd5C8dll5v0lzGLqswxYLz0jADONfjLQ7Ae+sghAherhYQ80ezjZg6iga8yfhyWPRz5Pi/StE8FT2If2Dz0yHq4v1FKs/Use7c97ZDxay+tE4gnr6qF19RhdPaqrx9byuujqCbU0qy6EnNZ1Vl3moKtHdY5G65FHdRlE5BGNCLFZJzoerZV1IvJoLXlEI7Ieivl1RIipVtYJ62FMfZE+j6yP/Yye4vtA5rR/B1MPABiByyKYaaqHRiN9PVr2yHrsoWcPOHuYSUxr9pAcx8PrEgdMrM8wiYfXxMMkHq1t9QRMbJ8h51G946FZdZptzgaZVZc56ELQ1SMM8qiuHpGJrMdT9Qgdj9Q3eVgZEcWyzjG/jhjLU6NvnZhGjz6m0QOAJQYuiwD0YA+0En0eWm/xMPYwSuI+Dx24k3pobSE8vE6j0RMwsdZmPZKzR31G7/NEsYygU5HMHY/qHI1Qj/qUokc0IsRaO02PZ2KPsN89EhYxPbL0rRMtHgBmEFwWAZgEe8jZg6YQ93noQOw7FMf2JPupp/ZMB8yjayYmnYfEvR7JA+qh0eCJYoG9MkJMOr+OSD3aX/cjOB7gYd9IZqJ4IT30MsBTZQJPtJ/xFJ/J9Ch5AABlcFkEM0/xwLAHjD2wbJzQcvg0efwewVfYe4inb8/BvSb1qI90XTOxrtV6pR7upZi449E1E7OHho1lkCfEtC6DsD2th1APoR71hX35dQTHBY/6ODYejoVqL2EsD6Ee4+ug68ZT7SUM9UQYz6Q07QfAjILLIgCWyuHTeoBkfbavj8nDvkRP6d2zpZfE7Ct5BO1V9CW9eF+ix8M+0lt9SsHTeT71kUd9Ro88NNQjccDGAnmU0JPqNSadX0eEnuLR/rqfwrHxlXq1eJp7ES0eT/CIz5L1UcyvIzqx+KyeJbOfJdQnvbJ9Zc9eKp6ob0svAJYhuCwCMOAAaD3o2NfQt9PP1phefCArhb7sk8EUaqhX8FX6NvmMp/iMFCc+7klkaqyHfaSrz8TsoUExCeoh1EPDeCju7aWxDPKEmNZlEFFP9RifwrHxqK/TiwLj41h1IcTWQ7GXsj5P6lM6sXpoNrT4Sn3VmyOqMb5iL6LST+GaTK9JmWYvAJYSuCwC4Bl8CNjDqnBwVXuaGjokW/aPfKX9JSZfp2fJ5+NsX6LFZ2L1qL/ko9j6in1bfZ7g0RrS1Wdi28vGjPER6iG0t3ps/8hHw3hSnxJi66HYS1GvUZj1KWkc+WgWsjXqEZ/1EC2+tIY9Mkq+Tt8+El9nT0uhX2n/Jlp9ACxDcFkEs8k4f/BLTfWQSogOwZ49s4dXpoZ8OgKFGtq/41WSmtDX6imJL/RNemlufexNfQp51CdxIPX5yfpC38RHBJ+Jgy+JU1/waiyoh4h6qk+86iFCjXiiGtKFKLaemo9ejI9j0bM11kexyISNiVYfoz6ahWKNeHkkZGsyPktU0+ONEG/0bI2MUwPAUgWXRQCE7B/+hYOnelAkNeTt7W0OrY4342N8PLi31AQyPkJ97CW94KNYfS29rY+9pGd8hPVxrGs0Gx/Fkc/EwWfinK/UWz1E8MkIMa3JILRnx0fxyMJENamPZiFbY33iTX0B66NYZCIbq49moam3p+hTxFvydWrG6G3J+pTEqxR7AzDDrLCfGRzSS/UzDABARJ8mDYcJ+xsPHTqAmz4VpR97pSZg90pi7c3+io8IXqljKjX22fkioaRx4tM451PS3uwnrM/E1hfijI/I+mSEGo96CPVGPvF2fKMw9mksRD4Px9ansa4JUWx94lWysfi0hqjWGG/Vp5BPazxFn6K9xd8H92jwps8EAOhBPmlowlcWATC0HjwMHWgSVjH9yB/V2L0K+3JNzZes6R7RPkShR8df8DG2v8RMxqeoL9RYbya2Pq3L+ZjE16lRr409nRrJOz4ZpKlPPSEWD/tk1prIJ3HHJ6Q1aX8liq1PY8H6iJCnNSIr2b2MX8n6FOOv+gz27U0p9khqav0DyTPVYF/hmQCYJXBZBGAImYODDpTO4VM7YOSwyh5Yti7pEdX09Ff4MkHzKC33l1i9WsdYH5HURTWlOht77HN1ajJ1aX+NA2msPhpprF7xBWQt8hlN0V6E9ak3xLQ+sjFRbH0yOKc1fh0R9bA+jQ21vaI60QkbE6W9iGJ/mUN/8RNpf0taZyntFdC9JM3RWcvsQ9R6AABG4LIIQMK4h0d6eEcU1miv5jqJuYZGZi1Qq+NM6Olh95qkjmvJV6ojn/G21rFPvTamRfLRSGOP9WXrBNtHfVEshFqZh9QpubqoB60J2ToiU2cp9ejUiayU6mwN5/w6otpjQJ0l1GXorRuHcesAWGbgsghmh9of/MladPAMrAu1Y9Rx7f6u87Gtiw7StEdPHc0M+RJvQNbSOq6VtUAaG6+t42dOvYqsleq4lhBfQPLIpzkbRkSx8bHXxrQ+sjFpPHYdBbk6GrQmZOuIpI5zWSJsTERrSZ0lrbPw2rh1xELXEePWAbAMwWURgAJjHQBywFBtpz45fCLMWqc2rbN5WufzUN9YR9i69NLRqUvyUEfD1lofkdQRaZ3GOS9j1nJ1xf0pNrn1RrHk5LUx5zKiWNBaJcTWKyPEnmKdh9dydTRkXbExEfK0jnJZIniPUchEfZJajg3FOg/nts7U9tYpWie1qdeSXWuoK2KeFwCAyyIAVWqHUAt0UBYPq1ofqdPR583BtaYPY71pXbJmaztvR+KNSOtM3qlLcyHU2lhyJq1L8lBrY5MH0lhy3sfEnAtR7D3cT4bNORYfUeyT1GnOsSdX1+lj6qI+7JinU6ekdUltUx9Ty3GGtI+F17SW+rCap7pW2T8l26exFoBZApdFAHKYA6N2MDENhwv14D41b7qWPIMdNW9pLdT7vKkPYXNTZ/sw5Eu8EZKHOho2p0WCfOJlMnlUl8kDaWzyqNbGNpehtTYPsaC1ShSburQP5+Ijan20NtvHE3k9xb62TkbqtRTztI+nVptds/XSg6j1Sen0qVDrw1SeAYBZBpdFABrgQ7GVipcOoOgQSr21fZKDjC8LEnfo6yt52od71WopTnJbG/XKeCOStbS200uhuJL39Sn2srFBawkbE6GfjFyudGplKH190lpLp29SqzHnIxvD3lHI2Jjg3NbamB3z1PJozfYR0lpLdZ+kT0qtbwo/EwAgCy6LYHYZeDjQwRMOnyG1qdfn2qv3MMvURkjOvUxfprGWMXHaS/OItDbNhU4viiVnyGv8UUyY3NamvTQPUFzJq700lkF1No5yQfsonTxXm+aCrSOKfW2tjBALxVqPjQnbp6WXpZibfjqaa0sM6FUjeLXfAIbsA8ByAJdFAAaSPSjSw2bA4cMHPs0yenvVesta6Gd6M7VeFKe5IX3Oam+K09xiatNeHEvOUC0NJZcLtjbtNU5vrVM6OfXSGomzuVDtJYOxtTJszLlYlWIvT+TN9aLZ0NzLE3LbS4cn9VuKvQTOTb/0OWv09WYG9ANglsFlEQAlPTgqBwkdPDqa6Ottcu7r8+b+jb21n+3N/Wv1FKe5RfJSb80Z8tr6hjzqZ+Mkb+mV5p3emVzrirmgdUoxN/Uapzn3Jq9Q7CVEedIrm4tVKfbyZL22l4nDuqEvz5L2FqbSW0l6p0zUG4BliFwW6VNh9OmATwoACqSHi+Ths6ewPinc3/fSfZr2GpDn+tucsfUUD8xLvdOcsbVE0iuXR70ac8bHuX6K1ilRTn1kaF1v7suK/Tw2JkKu9aZXmvNeYidyvftyxvTTOMoFW0uMlVf6T0LvXqzOk+YAgBH6uYGvLAIwJeiTSkeW9CCcIOd9fG735MPWMqXc9k/305ip9aO4IY96N+QBigfmTf1lZHPvU7RO6c1z/Wo51YxKmVxuKebaz/Tu5J7mfkJvbvv7EXJh2vsFzJ4AgPHBZRGA/QAdXnYE0kNryjkdwtHeST7t/TQv7ZfNbQ+KJ8i1X9q/Ne/tL0NJ67Tf4Fwo9hd6c+1nRjWnGn6dZyq52SO7v2Eq+xmiPNkbADAdcFkEYAjpAdSY04GWjrEZ8xkI3tvn0bNk8ohcbrWhuaflGUo5Q/1oKGPmUf9MHnxpLj5l0lz30P7NuaFvj76cyObpnrlcaOpn6MurmOcIw7OgzwDAjIDLIgAWOXACaT4OhZ50KPHweYglj2h5hr6agTk/Ew2Kc7lqJm/aw2pj5nbP7DNZrSGv7ak+JarxQ/u15qqleWePUcgMzYlsnuyZ5laLcqFpD0Nf3gLX6HPYZ6Kh64Zx9uhjf/QEYKmByyKYbeTQmYi0xzg9kxo+rGnWkck7pNo4+QQ9wnPSKOWq9eTRPkNzos9j8vAMNJJcfVGuHo5G9OVEnyeb654yWnKrRblg9yBa8nFqLGlO5J49mwu5Hn20PMdQptEDgKUGLosADMUcYM2kNS09emr4IkCzHalWyAPUk4alJbdamhMtudWSvPjsVuvLWzwmZ3ysI3h4waNe6+nJWzxprhrHQvQcnr6cyOXj1FiyNea5o2cv5EEz9O2bY5yalHFqAJhFcFkEoI/kYGuipSb1TKumz+NzOiSjkWq5vMUjMePzaO80J/o8aU70eTRv8Sg+Tt9G9Vhdid5OTylv8Vj6PGlO5PKgmbdB41Le4rF50Ax9z0a0eFKmUdPCODUAzAK4LAIwDZJDM8s4nlzNNDyUt3hSWmr8oEM3jFw+1FOqmdSjeUnzI7xNFa2UT9uT5r0eeZssLfm0PCnT8qRMywMAyIPLIpgt6BDtYyl4Um1/eSgf12O1pegR6JKRu8BYbSl6iL6cWOyeHIvNA8BSB5dFsKyhP8inMvwlIqvbMa4n1Vo8OW2anr66kmfcujTv04Z4clqLR4ZeImvaEE9Oa/Golubjesats3lOm5YnN6ZZl44WTxhEOgOwjFlBfzjyn5BMCAAAfbQcEjnPNOtSrdWzGOqs1uIhUq3FQ6Sa5jktQS+RiuY5zdKitXiIVGvxEK2evjpimnUprVrKNOsGoR8ndrYDgCWP/SzZh68sAjDVP9xzvVr6t9a1aJPUtWqWIXV9WouHMBr9kUZfFQoj1TRv1TSXoXuleU7TvKrpPhzN06K1eIiSltJal9NSWrRx64icljJuXSvT7AXAUgKXRQByyKEekdPGpbX/uNp+6E8HZRiUT1tL80at87yppvkYmt1LqWmWomb38UPfrhYtzaeqjR4xYlyN385RGBi3F9Gqjcv+7g/AUgeXRQAmgQ7alEWi6YWADr0wJtC4Pw3LpJplSF2PVnobhmqhr+SDNIP2tbRomuc0y1S03NswpsaxId2TWEwaAKAOLosAHEiSQ5UpaHTIRaNHCwzYo8N+0qLn1TFFLdpb8zG00JezEc2a7xM9j8lbNc1LGu/DrzGLQpNn7DxzSZMyyyQaAGB64LIIQAk6xFKmrRnowAvDe6PcjwV5HtJSPdHC89HQfKA27t7MAK31eTq65NrXesJeJU16WKatEayne8to1gxD906ZWDPPp88YaQOZ9jMCMMvgsggAMcZh1Euup9foIIqGaE0UenYoaakuWumZclqE1EdMohFe6+w/VBOd8XFnr5xGJJr2tYS9OBsRadLDPkvoO0TTfoZoH8PYmu5l9q1qvqS3pzCJloX2T55HnymluecA9kdPAJYKuCwCMBQ6pFJymocOmHQ01xd6Dqr3o/MMGa1WH5HTiEp9tBflJc3ojM87fWtaQe/bq6aFHmbUNEJ7WEJfzuapaqZvZx8ZOT3XkyhpqV6tT/dKctbUm9CqEYPq02coMGR/AEAMLosATBk6gHTUDq8OOW+pPtF5P6/ZvXU09yWt0auXlGivnOZHtm9OIyreqC/lOnK60UJPGpaa5kfUw1DTaO+oh4yc1tGlhyWnEVVv2ldGRyNvQkkb4rX72P04NuTqida9SqRv61AG7SUzAMsdXBbB7DHkAGn00qFROoCzPUp9e7y8jw7ZL9qTvD09AhWv7R32MlqA6mlYchqR0UNfGpTryGihnoalpone6Uujpvlhe1hPTSOiHoaaxrrp0+lrNNYNub5ETo806Wt7dzSxWnJ9iSav6W33Iob0JZq9dj8AwFjgsgjAOJQOuCEHUsmb9ObhNT7wUnp6RJBm9Ki3zf1gGnoEMro+c9rb6hFUT8OiWqJne6uW0Zt7S572UWxfS9ClvtPHaFa39PWOsD2SUeudUtOZXF8dQm+PhKzX9jX9h/QoEXkbegMAuuCyCIAih0iHjE4HzaDDpqG39uQx4FlYK+meqC8Nr9McUetR0LVPp7foAarXYclpHttj4t6id3rQqOgBq/th+2Z1j+1ryeq5HjKCnjC13mKzdHoIOU37pL2JiXt7ot6Gol/mJjJ9ian0BmAZUrks4tMDgBT6rAifGZnDhhmgcz+vZz/bxuivzxcGeXP+Rt320efUwST+QEHP9Qma6AGfZ/sYvdbH6n19lE6f3LoMS9DVL6PTR0ZvH84Eqc/2US0h15uI9FwfHUJTHwPrto+MnJdo1rWP9kwYu3+hHwBAGX224CuLADSSPXhKB01Fpz46AmP0IWwv7jdOn1wvr/HBnGL8EUbP9dE8YPwRiV7qoyP4TQ2T0aM+NFQzeqePp7MuQ7W0zva1RLrWyOj0F3J9iI4udZ0+NDzNfYShfYiqXuiVo0k3vSbqo8gzAQDy4LIIgCVzaNDhwgfnhHAfCkq9GnTtUX0m0nNrRo/60BijF18ofNjpU/BX+9Dwqe2T7aVaotuaqI/R+3ql/qiOhvVwNo+ts307fQxj9xrZInJ9CO1l+4ReI0tEqQ+R68O6jJSqnulD5PxEVU96jEt4poTS3gDMErgsAlCh6aAoHVSiU49On54aC9d7Pfss5O/ppfuHUaqp9OL9aVAsgynVJLrdO+0VSGoCmZq0VwTldghpTdor9StZjx+2l62zfVM6NTJYo/WRLaKj2xoZoZfQ1MvUhT4Zqr1MDx5Czk+UdH0G20Np7mXqB+9vyTwDALMOLotgNmk4ELKH0QCovnQAM6U1r3OtjAD5KzWWUD+gRqEaHhTLCJT6iW5reJDWU2OxNfYZAlpDw6J+Gj6Nhui5Gh05f1RHw3o4m8fW2b40Qq+RNdDplatRzRDVGFi3NWZUa0bhCFsjI0euF9HZ31CskREw9bWaEmH/AXT6NdTXngGA5QYuiwCkDDxoGFNDh0h0kNT6JWuhdkANwXVe5zGSYqgm19PUhL2VUg2RqeNarcnVGT2q85qODloja6U6ygPqp2HI1eiIamgI1kM11mN72RrC1gVyNTo82RqhpS4l6pfUcS/SM4QapaGuU6NojdSnZGsEXsvU9dYoSW2trsQ4NQAsR3BZBCBD8ZDIHHgBvzZOnR7AnVqqKdWZmmxdiaQu1PbsNc26cHHI1WkNDZ9OXKearEeoJuu5uprHYmtqdSmqpzUT1clajmhtinUlOmsNddFeitbQXKD4HJW9iFodAGAELosAJNQOlhJU01uXHD5RTe1gMmtaw3Wkl+qStXHqbE1rnb3gdOpopGgNDZ+GGkJraCSEGhqUy2C0hoaBPVpDQzVaJLSGhlDz2F62hmiuS2iqkyVLVGdqQp2uZSjVEYPrhEnqSoS1pIao1TGZmibGqQFgGYLLIgCG6EAqUTuo+g4Xv07+7OFWqS1dEhiqS2p1D71gZEnqQg2NZC1C1uwlRAdTqdXn6dQQWmdqg0/raPCKQWtoeEINDa0x6wHRbN+0LvSV3PostiatC+syIsQf1RmydeqTGq7LENWZmlDn5aivoHp4Hh1CqY4Iz2P8Sq1On6lEtk78xZ5CtJ7sUavt62v50pe+7N74pje5l7z0Ze7HnvlMd/oZZ7j7nnSyO+74492GDRvFBcDSBZdFMLtUDqdeagdV36FX2zdzmIU9aK2nNvJbCrXsp7pSX60jj0/tYHQ9g/blQflIHqF1NATbOzyTWQ+IbvvautCXhsH2tbUBrZEResoI6LoZrBmiWl03I7u/0OmrQ7C9A+IJtSKnRHVSo707PROiZ0rI1qqX6kTKEdVm+ldrM35Ltlb8tb4Rmf5au2XLFvfm3/s9vigetPFg9/CHPcw95SlPdU960pPdYx7zaPfQ8x7qzrn/OXxpXLVqlVQBsPTAZREAofnwEKr+zIEX+SsHHK11/JZCb/bTWqW3vUx0+mdqm3tTTx0+LfamIYTeUjekd+ivdTqEtHe2v2i53jRCTxmpz8Ka8YQ6QWuiWuOzvXNwnXhqvQPG19rb1lg6vQnx1foSoVb70jAUa8Xb1zswpDeReFM6tRk/XRTf9va3uz179rgnPvGJ7owzz3APf8TD3U/8+I+7F77g+e4XnvML7kef9jT3sIc93J199tnumGOPxYURLFn4ssifGPQiQQgBmGUqBwp/fvQcOLpe/FzK1IfPPVqr9fdr1YM6qQ99lWTdEi4XhfVQSx6fFnvTEKwv9DbrAVkLw0vF3mY9DNKsx2DXwxgtjSC/DLuuI2DXZWT3omHXzbB9aQR0XYeXonWBdfGEvgati2qNN7tuCPuTP0NUKz15CLXevD8NSXOE+qSvUutN1HoTofcEvO/973fr169397nPie7hD3+Ye+ITHu/OPOMMt2nTwe6ggw5yp522mbUnP/lJ7nGPO9+deeaZ7qijj5ZqABY3o8/B+c8kfGURAE/f4WKJvD0HTumwDZjDLfsMmfrIS+uFPdjn16rPIPXaM/RVZF2xPvYm6xb2UO+Kh3T1hJ4WraXhUU/wJutK8Hi9+gxmnYeXuK9CNRlPSnYvGgbtzfXWI75oXTGe2v5EZ/+EqL96Em9Ytxhfdt1Q25+I6gu+bH/jre1P8P4Vovoeb4kvf/kr/PcUjz32OPeQh5zrHnD/+8tKF1ojz1lnne0vlvfB32EESxJcFgGokRwmfQeVQr7grRxI7Os7sGjdj6hniumR9UkPi/rYm1lX2OPXapcA0tUTeqZIvfVEPlnn4bEeHnZdPIRd12HXldTDY7Q0T7re6GnZjz3Gx+s67LrxWU/AeLi3l6J1xXooLsD16in4wh7qSXzZZ0h8nXVFfNkeCbVnJEJ9jy8i8VWf00PrF/3TRe4xj360O/HEE6sXRYU85557rjv2mGPdIYceIioASwdcFsFs03KgmEMiS8thk9kn8tF64VnIx94+j1+rXQoI9WSfkaB648n6xMM+n3Z8Zp2wnuBLPETks+vGQ1hP5EvQ9ciXkHqob4fU40eKfZ6qh4au6zAEDw3rMT7rYRKfXQ8eouDpoB7jy6Ie8lcInoIv7NHiUTK+7HMmvqzH0LeuXH/9DXzpO/WUU0Tp56ST7us2bdrkVq9eIwoASwdcFsHM03JA9HrkoKv6jKfoSzxZX59H1qu+iif4ejzs6/Mk6yVPr49yGS0e6xvkMWt29Pl0fbAn8RU9xlf1+GHXS74mD9HiIVo8RMbXocVDtHiIRg+PPsRz/fXfczt37nLHHnsM5y0cd+xx7ogjj3Rr1+KyCJYecyefcuo+j/9M2uf/S3+dkWbnNm8+1V1y8cViA2BxQD9VuHXrVskAAGDhod+jSL8e5/nPex7/QEsL99xzj3vXH7/bffKTf+euuPxyUZ3bsGGDu/DCC915550nCgAHnsedf7678sor/f8/muOBrywCAAAAA9ixY6fbcuut7oYbbxClnxtvvMlt2XIr1wKw1MBlEQAAABjArl073V133eWuueZaUfr5zlVXubvuvItrAVhq4LIIAAAADODOO+50N950o7vsssvcV7/2NVHLkIe8VEO1ACw1cFkEAAAABrB1673uuuuuc9/85jfcF79YvzDSGnnISzVUC8BSA5dFAAAAYCC33Hyz+9a3vuUuueRi93d/90n3D/94kfv2t6/kH2S566673bcuv5w1WiMPeakGgKUIfhoaLCnw09AAgMUC/VvP9E/40b/MQr9we9Mhm9wRRxzJa/QDMPT3Gulbz/QVRboo7t69m9cs+GlosBhJfxo6XBbDhZEvi/v8ZXEzLotg0YHLIgBgsUH/hB/9km76hdv6exTpp57ph1no7yjWvvWMyyJYjITLIv0HvzoHAAAAmAy6DN5w/fXu2muu5t+hSINi0vB3FMFyAJdFAAAAAABQBJdFAAAAAABQBJdFAAAAAABQBJdFAKYA/QVgAAAAYDmCyyIAU4B/mwAAAACwDMFlEYAK9Csxjjv+eHffk052p59xBg+KSaM1AAAAYLmDyyIAGeiX7dKF8Jz7n+Meet5D3WMe/Wj3pCc9mcdjHvNo1miNPOQFACxu8NV/AMYHv5QbLCkW4pdy0+XvmGOPdWeeeaY766yz3XXf/a678jtX8kyfG8efcII74/Qz3H1OPJH/vVf6Z7zuuvEG95M77nCPXLndPWD1TnfMmj3OrfXN6Pfz6mzj0mziuQZPcZZ415xzO3y40490zmkLubbL0d/zTB44O09zLacV1vas7H8j+tZy2pTWVvs/snvegua1mien9a2t9udI2xtT9uxr8HTnWLth1Q532Zpt7otr59yHD1rpti7Cv1uMX8oNFiP4pdwA9ED/fBddFM8++37us5/5jPv4x//a/efXvubuvPNO/ue7vvmNb7BGa+R58BlnuMcdcah79fbb3eN3bXPH7PMXRQDAAee43c492f9/y1ffvsO9/rZ73SN2dP+5PQBAP+GyGP7/Fn+lHj/ZCWYT+nuI9O+80lcUP3Pppe6LX/yCrHT5whc+777gPff33ltO2uwuO/gIWQEALDaefu9O99/uuddtoO+iGfCbDACoIJ8e+MoiAAb6912PPeZY/pZz7aJI0CFz/09d4k7/9uXuB448wv3jkcfLCgBgMfL0e7e5n/YXRgv/FSwAQBVcFgEwrF69xm06ZJO7/IrLRanzkO073Inf+JrbtGmTu24tfjoagMXOI7dvlwgA0AouiwAY1q5d44444kh3/fe+J0qdc/1l8bgrv+12HnWM+966DaICABYrD9xJPwADABgCLosAZGj9e0wr/Vixd+8oWebgb3YtX2bpG7H48TMAhoPLIgCGHTt2ui233sq/FqeFr6xd42485VS39tYb3Qnb9++v9AEATM5la9dJBABoBZdFAAy7du3kX4+z+dTNotT57Lp17uoHPNjdeefd7j474r84DwBYfHwRl0UABoPLIgCGO++409140438lcWHPKT7S3LTb09/7Qce56447Qz3r7ducU+49XpRAQCLkY9tPMh9+KAN+AloAAaCyyIAhq1b73XXXXcd/8ss3/eoR3UujPaQobXzvOdr3nvUVVe6c+/eIisAgMXGxzZucH920Dr+V1zwuxUBGAYuiwAk3HLzzfxP+H3jG193j/y+73M/+qNPc2edfTb/epxDDjnEnXP/+7NGa+T50uWXu0tuu8P99trD3N+5De4Gh38rGoDFwE0r59xF61e73z5snXvV4evcv6/F5yYA4xD+bWjnB808/MLmzafi34YGi46F+LehCfr3oemf/aN/zYV+STf97kX6lToE/QAM/b1G+nY1fRWSLpe7du3CVysAAIPBvw0NFiPh34amr8TTf04+5RS5K5oLo//P5s2bcVkEi46Fuiwq9M//0b/qQr+sm34HI0E/MU0/CEN/v5G+bQ0AAOOCyyJYjKSXRXwbGoAKdBm84frr3bXXXO2uuPxyHhSThosiAACAWQCXRQAAAMse/DURAMYHl0UAAADLHv6rVgCAscBlEQAAAAAAFMFlEQAAAAAAFMFlEQAAAAAAFMFlEQAAAAAAFMFlEQAAAAAAFMFlEQAAAAAAFMFlEQAAAAAAFMFlEQAAAAAAFFnh8HtKAQAAAACAhe6HckfEVxYBAAAAAEARXBYBAAAAAECRuZNPPoX/xUz+dzP9oJn+s3nzZnfJxRePXAAsEs4++2y3detWycC02L17Nw/8+7kAzDM3N+dWrVrFY3+xYcMGd+GFF7rzzjtPFAAOPI87/3x35bev5M8BHrgsgqUELov7h+3bt7tNmza5NWvWiAIA2Llzp7vrrrvcunXrRJk+uCyCxQgui2BJg8vi/mHbtm3u2GOPlQwAoNx4441u/fr1kk0fXBbBYiS9LOLvLAIAAAAAgCK4LAIAAAAAgCK4LAIAAAAAgCK4LAIAAAAAgCK4LAIAxmNupVuzeoWbk3TqOQAAgEWBXBZHv1tt9OoJAQAzzsEPcE977nPcD51if8/aenf2U57vfv6xJ0i+fFl3xhPds/7LmW79oQ9wT/2vj3L3kT8x1p71bPfOT17sLvrr17kf3DT9HAAAwOKAroT4yiIANfYe7r7/eT/mzpjbIwKxwh396J92P3LGumX/VbDD7/8E99Ajd7q9xz7OPf1Ba92de0k9yD38p57hVn3w2e5xT32Nu/juaee8NQAAgEUCLosATIlVG492J554tDuIvwg551at3ejWr5q/Tq5M8hae+tSnug9+8IPZ8YxnPENc02du7UHu0IOOdKff/1B3w9Xb3cnnnuTu/fYtbuVBa91Kt94dcfQ6d++9e9w6/7bu3TftXB4CAADAokB+KTf9Mm76ndz8wvPm0/BLucHiY8F/KffGx7o3XvQKd+2zn+HedsVuFd1j3/AJ95LvPM/9+Luv9J89G9w5z3+n+5MXn+623eHc4esvd2/52V9yX3zyn7l33f897hnP/6i75YSfcu/9i6e5f3rWs9wHrrJfpeyHLow/+ZM/KdmIv/qrv3If/ehHJZuc9Jdy3/cpr3Iv/aFj3FH3Pc5t++51btex93GH3XKdu/nGz7uvHPPz7nmPOtKt2XWPu+ML73EX7v1p94Kp5X/gfvZX/srdKM8BwIEGv5QbzCL2l3L7F1wWwdLiwFwW3+oes/Umd/ee+S95rTr0SHfXu3/CPcNfFled83L38T8+2V3w9Je5T96ywp3+/D9373nwe9zTXnGje+HHft8d8rsvcP/2jLe5n/z8i9zPf+A7Tq+cQ7AXxmlfFInsv+By2JPcG3/3ePfOX/wn97h3/oq7+ZWvcJ/YQu+Do9zT3/4B99i//Vn38r+71f/pMe0cgMUDLotgFkkvi/g2NAC9XOP+76+/xL3sZS/j8dJf+VX39kvvcPr1wRMe8f3u0LsOdk//7Xe4d73r7e7Xvn+jW3fKae6oHV90F/zGP7kH/vq73K8c9mH36x8e76JIfOITn+ALoo79zTPf+CH34T/6RXe/45/gXnfhG92PHX+q+28XvM+98Zkn8d/TpAvd3r17wsVu2jkAAIDFAy6LADRw7w3fdF//+td5fONb33G3btO/e+j/H9fKFW7vdZ92f/b+D/JXCD74p693L/2NT7ib/Oqee+9xO9Ye5FbvuMdt5x8OGR/6iiKNheCv/ucvuF//5Hfcty58pfuVt37R3fDZN7sX/uzz3Ks+eg0udAAAMGPgsgjAROxzN371K27Pgx7sNlx+qfvUpz7lPnXp191Nt97u7lj3EPff3/RU97VXvcB96OD/7n77mccvmU+4fXvXuvueeZC75j9vcoedeYK786tXunv27nK7J7zwAgAAWHrgsghAH9kvpdHf9B2x9bMXuF//5Onujf/6OXfx3/+ju/Rzn3CvfsQx7pH//bfdD3319e73L7nMffB1f+mOfsXvuB8/YYl8ys2tcNd+/F3uE9fsdlu/+BfuA/9xqywAAACYNfADLmBJseA/4OJWujUb1rq5HVvdDvNDzCvWbHTr9m11W3fplXHOrT7kOHf8oc7dffNN7rZt+9zq9evdyl33uu38FxVXuFXr1rtVuzVfXGR/wKXCijUb3Oq9/n0ib8u0cwAWC/gBFzCL4AdcABjEHrfTX07tRZHYu/Nec1Ek9rldd17vrrnmen9RJPNet2ubvRjudbu3L86L4jjs3Rlf7KadAwAAWDzgsggAAAAAAIqYy6L9KgkAAAAAAAD4yiIAAAAAAKiAyyIAgP8SM/2QCwBgHvqc4L/gD8CMY34aevQT0fhpaLCYWfifhp4Ndu/ezYN/IwIAgKGL4qpVq3jsL/DT0GAxUvm3oXFZBIsfXBYBAMsJXBbBYgS/OgcAAAAAADSDyyIAAAAAACiCyyIAAAAAACiCyyIAAAAAACiCyyIAAAAAACiCyyIAAAAAACiCyyIAAAAAACiCyyIAAAAAACiCyyIAAAAAACiCyyIAAAAAACiCyyIAAAAAACiCyyIAAAAAACiCyyIAAAAAACiCyyIAAAAAACiCyyIAAAAAACiCyyIAAAAAACiCyyIAAAAAACiCyyIAAAAAACiCyyIAAAAAAIiZk9mDyyIAAAAAACiCyyIAAAAAACiCyyIAAAAAACiCyyIAAAAAACiCyyIAAAAAACiCyyIAAAAAACiCyyIAAAAAACiCyyIAAAAAACgyd/LJp+zb5/x/6HWfV3je5zafttldcvHFIxcAi4Szzz7bbd26VTIw6+zevZsH/ZkF2pmbm3OrVq3ikQPv1/Hoe7/m2LBhg7vwwgvdeeedJwoAB57HnX++u/LKK90c/WZu/3GNyyJYUuCyCCzbt293D37wg93JJ5/sVqzAN0pa2Lt3r7v66qvdl770Jbdu3TpRY/B+HU7L+zUHLotgMdJzWfS3RfovLotgkbLcLovXXHONRIuTk046SaLFybZt29zTn/50d++997odO3aICmqsXbvWbdy40X3sYx9z69evFzUG79fhtLxfc+CyCBYjfFn8tr8s+osiXRbxfxkBAEsa+sOMvhKm/4cXoz7ofcUHQA94vw4bre9XAJYiuCwCAAAAAIAiuCwCAJY0ua/yYPSPPnI1GP0DgOUILosAAAAAAKAILosAgCVP7is8GOXRSq526Q9+wxJtOgOA5Qoui2A2WHe8e/iP/7J7zRve6H73ta9wP/+E092m2kf/cc9yH770AvdfNkkOQIWVh2x2j3ras92LfunF7nk/9UT3wGPWyopnw2b3mB95invocStFWOdOfczT3dOfcD93qCizxwp30EkPd0/5mRe4X/qlF7qf//Efcvc7crWs7U9Wu3Oe8/vu9c+4L/1CEABAI7gsgmXPujOf7d5zyT+4Nz/9WHfXFf/prrzjEPeYn/phd3LPRz8Ok6VB7is8CzkOftBz3e+94zfcM0/b52646lp31yHf737pLW91r3js0W6OPHsOdg/8kce5E+f2eP+cO+r8l7lX/cyJ7vrPfd3dnvRayNFHrmYqwx3sHvwLb3bv+M3/6s5aebO76upb3N4Tvs+df7+D8/6pDv928W+Oy61NZwCwHMFlESxv1j/UveIdL3Or3/E09/hnvdr94Xve7979B69xz33uW91Xdo8sK9Yd7o6/733dMQevql4Qs74Vq936DWvdqpVr3KYjDncb2//hBjAlcgf2go2ND3XPecn3u+ve/lL38je93330Ex93f/6O17iX/Nan3X1+4UXuB4+Q5/PPSVeUjQ/4eX9RXO3+8jff7j57295uvwUcfeRqpjGOOP8l7iXnft298cW/6t70vr9yn/ib/+Pe95bfcm+95FZen1tzsDvy6CPdpjX+Sic1btVat271Cje3dpM76qjD3foVad85t/aQo90xR21ya+2aW+02HnmMO+rg1fQGiUYXRon3wwBgOYLLIljWHPx9P+WesvvD7n9/+Eq3U7R51rv7Pfd97tOf+0f35/4S+TeXfs79zWt+wB0uq/NUfMf8pHvPP/6xe8Pb/979y8V/6n7+FHxKzRIHP/Bx7kF3/J37yL9t4UuIsu3rf+s+efXJ7jHnHSmKv++c8CT3qy+5n/vcm97kPvk9+X8qs8bc8e4xP7zZfesjH3Ffvqd7sTr2ia9273r377vX/q/fdH/43ne5X/uBI/0Ve407+9lvdK976cvc6//g9e43fucC994/epn7Pv0e/sEPcM/6nXe7d77p1e6Vr32L+70XPsR/xvqtDn+ke/Fb/thd8Fuvdr/51j9xb3n+ue7gUQUAYCA42cAyZs4dtfk05771NXfdLpEMq+//S+73X7DDvfm/PML9wOPPd4987P9wVzzld92vfv9GcYzo9R1yplv/9z/jHvrAZ7p3XLl3pIEFI/fVnYUZzm065mi357pr3a170rW73Pe+t9UdfMQmt4LuRHvXu+//uae4O/7kde7Cr9+beA/M6CNXM/FYd5y77xF3uO9cfWd2fce3/8K98jnPdS/+lV90L/2jb7uzfviR7iivO7fWnXDEd9wfvfjF7sXPf7l73y0Pdk955FG+5iD3sOe82D386gvcLz/vl91LfvEX3Evf/RW3bd8m96jn/YI7+dLfci980S+5F734D92VD/s595ST6auV/MaFPac9AFiOJJdF+eYa/rIWWEasWLUq+/+KTnj4I93GS//SXXT96Ks8e2+71P3Np3a7+z/ohMjf69v+dXfxp653e9xetxd3xZli7569/PGlP7oyzwq3evUKt3vHTv9R4Znb5i6/bIt7yM/+lDt3ln9oyt+l9s2tcCtX5A+Z22/Y7s54+gvd/3jdm91v/9wD3Ma1a90asu7b4b73hcvcd/dQfJu7+so73dqDN7oV6051D3vAdvepT37Z3c0d9rldO3f5S+lmd+7p/mJ42n91v/rKV7pX/soT3DG7D3L3OW4DuwAAw8BXFsEyZp+76ZvfdHvPfax7YOf7T3NubsUKt2r16uiTYO++vW7f3n3mW4oNvl33uHu63+MGC0TuqzsLM/a6LVdd7fae9RB3+oZkbfV93QPPXu2uufJm/7HiP0rm9rnv/e3/dn/wlQe4l73yme6UNYn/AIw+cjUTj63fdVfecLh74AOPHf3wjx0rT3I/9pu/4Z664T/dX7/rd91vvvPf3B3+Uslr/j979+zm9+W+fXvcnt3y9z3nVrlV3jPn379RL//8cyvudd+6+BPu7/7u73j8xTsvcB+/kj5RaTXxT3EAsBzBZREsa+797Pvc+657vHvd63/CbV6vX81Y5Q7dvNnt+fLn3NZHPdM94fjRT6WsOPz73I8+Zq/7/H98l4+TEfvc9V9o8YEDRe7AXqix7Wsfdx/73nnu+S863x3HP0Ph9ZWHu4f9/C+6H7jDr31560jzzznn7naf/+PfcX++/SnulS95rDsqveAs8OgjVzP5uMFd8lefc0f+1Mvdsx50iFspult9pDvx5FPd5iNvdP/29592X7/2TnfoWWe4w2iNPcnz6H/uvcp99erD3Peff7Zbz2tzbu36tc5tvcZ947uHufudeK/7+mWXucsu+5L7xi13urtuo3/rmt+4+V5THgAsR3BZBMubXd90f/y8F7n/c9jL3Me/+BX3+c98xv3Hly5zl7zlR9yhl13gXvHeg9z/uOhz7l8uuth99uLXuWM++HL3li9ul+IROxp9YAbZfa376995vbvo4J9xb/nQh9373/t+9+EP/ZF7wQn/5t742x911+jPsfg7BH012u3+rvvEm//Qff6UX3S/8dwHuYNkeZa469/f6l79rmvdQ3/t3e5DF77Pved9H3J//qE3uZ854dvuksuOcM968zvc2//4be4Xjr/T3d77d6JudRe/40/cdx7xGven73uH+6M/fq/7/Wef7da6W9zFf/oX7s4ffoN735++3V3wzve5P3nVD7r5HzcCAAxh7uSTT6H/PyT/r8gro8xt3rzZXXLxxSMXAIuEs88+223dulWyIcy51ZuOdscescHtvesmd9NtW91u+SLAyo1HuuOPXOe23nKD27KV/lIUiWscfYFi17adDb4579sRfEO45pprJFqcnHTSSRItTrZt2+ae/OQnu1tuuUWUA8WcW7XxMHfEptVu111b3O337qb7obDCrV63xs3t3O52yt9pneNfBbPP7dy+0+0Z4+NmUo466ij+1uz69fRzw10W5P26Yq3bdMQR7uCV290dW2539+6id8RKt/6wI92mvbe7m+9xbu3KPW7HTv+5tmqdW+N2uB3ySTbn87U+366fdHNr3EFHHu427rrT3XrHNiefnX6Pde7Qow5360i//V7+HJ1b7Wv3mdop0vd+zbFhwwZ34YUXuvPOO08UAA48jzv/fHflt690c3P+/7D5ga8sghlhnz/Eb3Lfveoq970t8xdFYs+9t7rvXnPd/AWQ2LPTbds6f1Ekyr7xLopgObHP7b73NnfTDTe526KLIrHX7do+f1Ek9u3e4S9kB+aiuGjYu8Pddcv17ns33iYXRWKP23a7/z9zd+50+/zn1nZ/UaSVfbu3h4siQXl02du3091zy43uJntRJPb6i+hN17sbbxtdFIl9u5JaAEAvuCwCAJY06d8Zw2gbfeRqMPoHAMsRXBYBAAAAAEARXBYBAEuaPXv2uLVr12a/yoPRHfS+ovdZH3i/Dhut71cAliL4ARewpBj/B1zAcmT79u3urLPOcve5z33cypXdX40NutCF5rrrrnPf/OY33bp160SNwft1OC3v1xz4ARewGEl/wAWXRbCkwGURWHbv3s2D/vwC7dABsGrVKh458H4dj773aw5cFsFiBJdFsKTBZREAsJzAZREsRvCrcwAAAAAAQB3zO/FxWQQAAAAAAEVwWQQAAAAAAEVwWQQAAAAAAEVwWQQAAAAAAEVwWQQAAAAAAEVwWQQAAAAAAEVwWQRLimOPPXbQL7wFAIDFCv1Zdvjhh0sGwOIFv5QbLCk+8IEPuHe/+93u1ltvFQUAAJYmdFF88pOf7J75zGfyP68IwGKBfyn3lVe6Ofpli/gXXMBSZMuWLe6WW25x9957rygAALA02bhxozvqqKPcEUccIQoABx5cFgEAAAAAQJH0soi/swgAAAAAALLQv/qHyyIAAAAAACiCyyIAAAAAACiCyyIAAAAAACiCyyIAAAAAACiCyyIAAAAAACiCyyIAAAAAACiCyyIAAAAAACiCyyIAAAAAACiCyyIAAAAAACiCyyIAAAAAACiCyyIAAAAAACiygv/Rv9ELAAAAAAAAEfjKIgAAAAAAKILLIgAAAAAAKILLIgAAAAAAKILLIgAAAAAAKILLIgAAAAAAKILLIgAAAAAAKILLIgAAAAAAKILLIgAAAAAAKILLIgAAAAAAKILLIgAAAAAAKGIui3P4l/8AAAAAAEAEvrIIAAAAAACK4LIIAAAAAACK4LIIAAAAAACK4LIIAAAAAACK4LIIAAAAAACK+Mti7sef5SejAQAAAADAbEKXQT/8ZXFfyHFDBAAAAACYbUZ3xPlLYfyVxdG9kZXde/a4W265ZSQAAAAAAIBlD939du/eI9mI+b+zOLpG6ovbsX2Hu/yKKzgGAAAAAADLH7r7bd+xXbLRnZAvi6NwhMY7du5wV1x+uWQAAAAAAGC5Q3e/nTt2cjy6E87JVxbDbVECP91z9z3uQx/6sLvuuutGGgAAAAAAWLbQnY/ufvfcc4+5Gzq3Yo4Tepm/KBK7du1yN954o3vb298+EgAAAAAAwLKF7nx096M7IOPvhHQtXHnYYYe9dqR4gS+Kclv00Pest9y6xV155ZXurLPOcps2bZIVAAAAAACwHKCvKL7+9W9w/3zxP7stW7awNkeXQj94OuXUU/fto5+C9i/8nzT2HHLIJnfssce6Z/3Mz7jTTz/dnXHGGe6oo44aLQIAAAAAgCUF/dTz5Zdf7q644gp34Yc+xF9RvOvOu0aLdEHkF7os+nHKqZv5VqiXQ7k5ji6KRl+9epU7+KCD3Zq1a9y6tevcypUr/ApbK1QXq4xdOf6WE7Dwmy6tN/OAPO2CMyMfep7Z+N/zwDD/nZ1lzQF4M2fkPesZ8y2dmf9NFn5X+srcwlPZ1C/RKv16nB07trsdO3fy31HctWv36KuIbJCvKGrMl0X/h398OWSJZ/rP6L9GH72EuQSvj8uYpQdiz0kY+3nHftbx38gD8O5ZWv+bLDVm5M0EPdCpAYrwYbnQTLDl+KVL5+08EP+b8LdkF5oJtqy+j/xSuASGeDSPvvWs2vz63Kn+skiHI90D5y+L1I1mH/B/47gzF+CahWaCLWtvS5UD8mbOwLNOwgHYchIOyPsIgAMEH0SzwJhv5mTvnQOy6VgckI+Dsd89EzzrItuT+/J/7exfrUa56lRz6mZ/WaRzyr/wgUX/7cTJOv1nJPJ/S0jleIxZOit7jstEzzouB2DLSTZdYo8L9hMH4nNl9McyKHIA3j2TbTlm9RL6MDggH7MTbDn28y6nPXnJO/zMvjBbbRRzRvGpm0/zfybSH4s8+T8hu/Hov/Nz+lXGEry+0Eyw5djPe0DezBl41kk4AFtOsukBedxZYSm9c/kP5+XPgXkzD8CuB2TLBd50gu0W/FmJMbec6FkPxJ416PLHk3/l/9KL7CZ5Z23+suj/TB3dEEcXRZ59wP+VWXwjv65VGDUaC9lpYRlzy4medYHfzKX0rJNwQD5+JmGJPe74zMwbusDwH/PLnyX2Zsrxu7As8JZL7W0c+3mX2J61Yl7xL/xcdBEMcaxxRrFz7v8HtCccqypyeI8AAAAASUVORK5CYII=;" vertex="1" parent="1">
          <mxGeometry x="1298" y="230" width="651" height="522" as="geometry" />
        </mxCell>
      </root>
    </mxGraphModel>
  </diagram>
</mxfile>
